<svg width="84" height="85" viewBox="0 0 84 85" fill="none" xmlns="http://www.w3.org/2000/svg">
<path d="M38.0274 12.2224H11.571C9.56626 12.2224 7.64361 13.0188 6.22602 14.4364C4.80844 15.854 4.01205 17.7766 4.01205 19.7814V72.6941C4.01205 74.6989 4.80844 76.6216 6.22602 78.0391C7.64361 79.4567 9.56626 80.2531 11.571 80.2531H64.4838C66.4886 80.2531 68.4112 79.4567 69.8288 78.0391C71.2464 76.6216 72.0428 74.6989 72.0428 72.6941V46.2378" stroke="black" stroke-width="7.55897" stroke-linecap="round" stroke-linejoin="round"/>
<path d="M66.3735 6.5531C67.8771 5.04953 69.9164 4.20483 72.0428 4.20483C74.1691 4.20483 76.2084 5.04953 77.712 6.5531C79.2156 8.05668 80.0603 10.096 80.0603 12.2223C80.0603 14.3487 79.2156 16.388 77.712 17.8916L41.8069 53.7966L26.689 57.5761L30.4684 42.4582L66.3735 6.5531Z" stroke="black" stroke-width="7.55897" stroke-linecap="round" stroke-linejoin="round"/>
</svg>
