<svg width="16" height="17" viewBox="0 0 16 17" fill="none" xmlns="http://www.w3.org/2000/svg">
<path d="M15.3334 2.34571C14.695 2.78895 13.9882 3.12796 13.2401 3.34968C12.8386 2.89528 12.305 2.57321 11.7114 2.42703C11.1179 2.28085 10.4931 2.31762 9.92147 2.53237C9.34986 2.74711 8.85904 3.12947 8.5154 3.62772C8.17176 4.12598 7.99188 4.71609 8.00008 5.31826V5.97445C6.8285 6.00435 5.6676 5.7486 4.62075 5.22996C3.57391 4.71133 2.67363 3.94592 2.00008 3.0019C2.00008 3.0019 -0.666585 8.90763 5.33341 11.5324C3.96043 12.4497 2.32485 12.9097 0.666748 12.8448C6.66675 16.1257 14.0001 12.8448 14.0001 5.29857C13.9995 5.11579 13.9816 4.93346 13.9467 4.75393C14.6271 4.09347 15.1073 3.2596 15.3334 2.34571V2.34571Z" stroke="#EF233C" stroke-linecap="round" stroke-linejoin="round"/>
</svg>
