<svg width="215" height="144" viewBox="0 0 215 144" fill="none" xmlns="http://www.w3.org/2000/svg">
<g clip-path="url(#clip0_522_5406)">
<path d="M155.533 80.8221C153.7 90.8173 148.805 99.9952 141.525 107.085C134.245 114.175 124.941 118.826 114.901 120.394C104.86 121.962 94.581 120.37 85.4859 115.837C76.3908 111.305 68.93 104.056 64.1365 95.0962L62.6201 95.3299C67.4974 104.688 75.1873 112.281 84.607 117.04C94.0266 121.798 104.702 123.482 115.128 121.854C125.555 120.226 135.209 115.369 142.731 107.966C150.252 100.564 155.262 90.9882 157.055 80.5884L155.533 80.8221ZM99.5607 22.1546C89.1378 23.7928 79.4895 28.6534 71.9699 36.0544C64.4503 43.4554 59.4369 53.0252 57.6333 63.4207L59.1249 63.187C60.9526 53.1844 65.8468 43.998 73.1291 36.9013C80.4113 29.8045 89.7209 25.149 99.7675 23.5799C109.814 22.0108 120.1 23.606 129.199 28.1442C138.299 32.6824 145.761 39.939 150.552 48.908L152.068 48.6743C147.179 39.3267 139.487 31.7439 130.07 26.9896C120.654 22.2353 109.985 20.5481 99.5607 22.1646V22.1546Z" fill="black"/>
<path d="M158.979 42.8274C158.085 42.5585 157.32 41.9741 156.825 41.1829C156.33 40.3918 156.14 39.4478 156.289 38.5267C156.373 38.0118 156.352 37.4851 156.226 36.9787C156.1 36.4723 155.873 35.9968 155.557 35.581C155.242 35.1653 154.846 34.818 154.392 34.5603C153.938 34.3026 153.437 34.1398 152.918 34.0819C151.991 33.9761 151.133 33.5372 150.505 32.8468C149.877 32.1564 149.521 31.2615 149.503 30.3282C149.494 29.8073 149.379 29.2936 149.165 28.8185C148.952 28.3433 148.644 27.9165 148.26 27.564C147.877 27.2115 147.425 26.9407 146.934 26.768C146.442 26.5954 145.921 26.5244 145.401 26.5596C144.468 26.6214 143.545 26.3424 142.802 25.7745C142.06 25.2066 141.548 24.3884 141.364 23.4721C141.262 22.9603 141.058 22.4745 140.763 22.0443C140.467 21.6141 140.088 21.2483 139.647 20.9693C139.206 20.6903 138.713 20.5038 138.198 20.4212C137.683 20.3387 137.156 20.3617 136.65 20.489C135.745 20.7166 134.787 20.6077 133.956 20.1825C133.125 19.7572 132.476 19.0446 132.131 18.1771C131.94 17.6918 131.653 17.2505 131.286 16.8799C130.919 16.5093 130.481 16.2172 129.998 16.0214C129.514 15.8256 128.996 15.7301 128.475 15.7409C127.954 15.7516 127.44 15.8684 126.965 16.0839C126.112 16.4694 125.148 16.5305 124.253 16.256C123.358 15.9814 122.593 15.39 122.103 14.5924C121.827 14.1488 121.464 13.7661 121.035 13.4675C120.606 13.1689 120.121 12.9607 119.61 12.8556C119.098 12.7505 118.57 12.7506 118.059 12.856C117.547 12.9615 117.062 13.1699 116.634 13.4688C115.872 14.0006 114.943 14.2387 114.019 14.139C113.095 14.0394 112.239 13.6089 111.607 12.9268C111.257 12.5399 110.832 12.2282 110.357 12.0108C109.883 11.7934 109.369 11.6748 108.847 11.6622C108.325 11.6497 107.806 11.7434 107.322 11.9377C106.837 12.1321 106.397 12.4229 106.029 12.7926C105.369 13.4537 104.491 13.8513 103.559 13.9109C102.628 13.9704 101.706 13.6876 100.968 13.1158C100.555 12.7982 100.081 12.5677 99.5768 12.4382C99.0721 12.3087 98.5464 12.2829 98.0314 12.3624C97.5165 12.4419 97.023 12.6249 96.5809 12.9006C96.1387 13.1762 95.757 13.5386 95.4589 13.9659C94.9275 14.7347 94.1347 15.2842 93.2283 15.5119C92.3219 15.7397 91.3636 15.6302 90.5318 15.2039C90.0689 14.9644 89.562 14.8216 89.0421 14.7842C88.5222 14.7468 88.0001 14.8155 87.5076 14.9861C87.0151 15.1568 86.5625 15.4259 86.1772 15.777C85.792 16.1282 85.4822 16.554 85.2667 17.0286C84.8793 17.8786 84.1964 18.5589 83.3449 18.943C82.4935 19.3271 81.5315 19.3889 80.6379 19.1168C80.1378 18.9666 79.6125 18.9195 79.0936 18.9781C78.5748 19.0367 78.0732 19.1999 77.6192 19.4578C77.1652 19.7157 76.7681 20.063 76.4521 20.4786C76.1361 20.8943 75.9076 21.3697 75.7805 21.8761C75.5536 22.7822 75.0046 23.5746 74.236 24.1053C73.4674 24.636 72.5318 24.8687 71.6041 24.7598C71.0863 24.6993 70.5617 24.7447 70.062 24.8932C69.5622 25.0417 69.0979 25.2901 68.6971 25.6235C68.2964 25.9569 67.9675 26.3682 67.7305 26.8325C67.4935 27.2968 67.3533 27.8044 67.3184 28.3246C67.2552 29.257 66.8552 30.1346 66.193 30.7941C65.5308 31.4536 64.6515 31.8499 63.7188 31.9092C63.2026 31.9444 62.6988 32.0835 62.2377 32.318C61.7765 32.5526 61.3674 32.8779 61.035 33.2744C60.7026 33.6709 60.4537 34.1304 60.3031 34.6254C60.1526 35.1204 60.1036 35.6408 60.159 36.1552C60.264 37.083 60.0285 38.0175 59.4963 38.7848C58.964 39.552 58.1713 40.0999 57.2654 40.3265C56.7592 40.4513 56.2836 40.6778 55.8677 40.9922C55.4517 41.3066 55.1041 41.7023 54.846 42.1554C54.5879 42.6084 54.4246 43.1092 54.3662 43.6273C54.3077 44.1454 54.3553 44.67 54.506 45.1691C54.7709 46.0642 54.7023 47.0251 54.3128 47.8734C53.9234 48.7218 53.2395 49.4003 52.388 49.7829C51.9125 49.9968 51.4852 50.305 51.1322 50.6888C50.7793 51.0727 50.5079 51.5241 50.3345 52.0159C50.1611 52.5077 50.0893 53.0296 50.1236 53.5499C50.1578 54.0703 50.2973 54.5783 50.5336 55.0431C50.9604 55.874 51.0691 56.8322 50.8393 57.7376C50.6096 58.6431 50.057 59.4334 49.2856 59.9602C48.5048 60.4925 47.9478 61.294 47.7212 62.2114C47.4946 63.1288 47.6144 64.0975 48.0576 64.9321L55.3711 63.7885C57.1187 52.7971 62.305 42.6424 70.185 34.7829C78.065 26.9234 88.2332 21.7636 99.2292 20.0447C110.225 18.3257 121.483 20.136 131.386 25.2156C141.288 30.2952 149.326 38.3826 154.345 48.3162L161.659 47.1727C161.823 46.2458 161.64 45.2911 161.146 44.4899C160.652 43.6888 159.881 43.0971 158.979 42.8274ZM166.128 79.1664L159.337 80.2303C157.591 91.2278 152.403 101.389 144.519 109.252C136.635 117.116 126.46 122.277 115.458 123.995C104.456 125.712 93.1931 123.898 83.2873 118.812C73.3816 113.725 65.3434 105.63 60.328 95.6877L53.5117 96.7517C54.0849 97.014 54.5837 97.415 54.9631 97.9185C55.3424 98.4219 55.5903 99.012 55.6844 99.6354C55.7634 100.151 55.738 100.676 55.6098 101.182C55.4806 101.687 55.4552 102.213 55.5351 102.728C55.6149 103.243 55.7984 103.737 56.0744 104.18C56.3505 104.622 56.7133 105.004 57.141 105.302C57.5688 105.6 58.0525 105.809 58.563 105.915C59.4787 106.1 60.2954 106.612 60.8601 107.357C61.4248 108.101 61.6988 109.025 61.6307 109.957C61.5935 110.478 61.6625 111 61.8335 111.493C62.0045 111.987 62.2739 112.44 62.6254 112.826C62.9769 113.212 63.4032 113.522 63.8783 113.738C64.3534 113.955 64.8675 114.072 65.3894 114.083C66.3221 114.105 67.2153 114.464 67.9023 115.096C68.5893 115.727 69.0233 116.586 69.1232 117.514C69.1232 117.569 69.1232 117.638 69.1232 117.693C69.2019 118.193 69.3784 118.673 69.6427 119.105C69.907 119.537 70.2538 119.913 70.6634 120.211C71.073 120.508 71.5373 120.723 72.0297 120.841C72.5221 120.959 73.033 120.979 73.5332 120.9C74.4552 120.755 75.3984 120.95 76.1876 121.449C76.9767 121.947 77.5582 122.715 77.8239 123.609C77.9723 124.11 78.2208 124.576 78.5544 124.977C78.888 125.379 79.2997 125.709 79.7646 125.947C80.2295 126.185 80.7378 126.326 81.2588 126.362C81.7798 126.398 82.3027 126.327 82.7957 126.155C83.6767 125.848 84.6394 125.871 85.5046 126.22C86.3698 126.569 87.0786 127.221 87.499 128.054C87.7341 128.519 88.0611 128.932 88.4601 129.267C88.8592 129.602 89.3221 129.852 89.8207 130.003C90.3194 130.155 90.8435 130.203 91.3614 130.146C91.8793 130.088 92.3802 129.927 92.8338 129.67C93.239 129.441 93.6818 129.286 94.1414 129.213C94.8298 129.109 95.5335 129.193 96.1783 129.455C96.8231 129.718 97.3853 130.149 97.8056 130.704C98.1196 131.12 98.5149 131.469 98.9675 131.727C99.4201 131.986 99.9205 132.15 100.438 132.21C100.956 132.269 101.481 132.223 101.981 132.074C102.48 131.924 102.944 131.675 103.344 131.341C104.061 130.742 104.971 130.424 105.904 130.448C106.838 130.472 107.731 130.835 108.415 131.47C108.799 131.823 109.25 132.095 109.741 132.269C110.233 132.443 110.755 132.515 111.275 132.481C111.795 132.447 112.303 132.308 112.768 132.072C113.233 131.836 113.645 131.507 113.979 131.107C114.578 130.391 115.417 129.917 116.34 129.773C117.262 129.628 118.206 129.823 118.996 130.321C119.435 130.602 119.928 130.789 120.442 130.873C120.957 130.957 121.483 130.936 121.99 130.809C122.496 130.683 122.971 130.456 123.386 130.14C123.801 129.825 124.148 129.428 124.405 128.974C124.864 128.161 125.604 127.542 126.486 127.235C127.368 126.928 128.332 126.952 129.198 127.304C129.681 127.5 130.199 127.596 130.72 127.586C131.242 127.577 131.756 127.461 132.232 127.247C132.707 127.033 133.134 126.724 133.487 126.34C133.84 125.955 134.111 125.504 134.284 125.012C134.593 124.131 135.212 123.394 136.026 122.936C136.839 122.479 137.791 122.333 138.704 122.526C139.214 122.632 139.74 122.633 140.251 122.53C140.761 122.427 141.246 122.222 141.675 121.926C142.104 121.63 142.468 121.251 142.746 120.811C143.024 120.37 143.21 119.878 143.293 119.364C143.439 118.441 143.916 117.604 144.634 117.007C145.352 116.409 146.262 116.093 147.196 116.117C147.719 116.135 148.24 116.045 148.728 115.855C149.216 115.664 149.659 115.376 150.032 115.007C150.404 114.639 150.697 114.199 150.893 113.714C151.09 113.228 151.185 112.708 151.173 112.184C151.155 111.252 151.475 110.344 152.074 109.629C152.672 108.914 153.509 108.439 154.43 108.291C154.945 108.212 155.439 108.029 155.881 107.754C156.324 107.478 156.706 107.115 157.004 106.687C157.302 106.26 157.51 105.776 157.615 105.265C157.72 104.755 157.721 104.228 157.617 103.717C157.617 103.658 157.592 103.603 157.582 103.543C157.443 102.651 157.622 101.738 158.088 100.964C158.555 100.191 159.278 99.606 160.132 99.3122C160.625 99.141 161.078 98.8718 161.464 98.5208C161.85 98.1698 162.16 97.7443 162.377 97.27C162.594 96.7956 162.713 96.2823 162.726 95.7608C162.739 95.2394 162.647 94.7207 162.454 94.236C162.103 93.3709 162.08 92.4074 162.389 91.5265C162.699 90.6457 163.32 89.9083 164.135 89.4531C164.592 89.1969 164.992 88.8501 165.311 88.4338C165.629 88.0175 165.859 87.5406 165.987 87.0322C166.114 86.5239 166.137 85.9948 166.052 85.4775C165.968 84.9602 165.779 84.4655 165.497 84.0238C165.024 83.2663 164.828 82.3679 164.943 81.4821C165.058 80.5962 165.477 79.7777 166.128 79.1664Z" fill="black"/>
<path d="M134.92 84.024C132.899 88.6698 129.737 92.7299 125.728 95.8276C121.718 98.9253 116.992 100.96 111.986 101.744C106.981 102.527 101.858 102.034 97.0944 100.309C92.3304 98.5851 88.079 95.6854 84.7347 91.8795L83.0443 92.143C86.5309 96.354 91.0522 99.5864 96.1646 101.523C101.277 103.46 106.805 104.035 112.207 103.191C117.608 102.347 122.698 100.114 126.976 96.7102C131.254 93.3065 134.574 88.8492 136.611 83.7754L134.92 84.024ZM102.469 40.8139C97.067 41.6583 91.9768 43.8916 87.6974 47.2951C83.418 50.6985 80.0962 55.1554 78.0576 60.2289L79.748 59.9654C81.7714 55.321 84.9349 51.2628 88.9451 48.1672C92.9553 45.0715 97.6822 43.0387 102.688 42.2572C107.693 41.4757 112.815 41.9708 117.578 43.6967C122.341 45.4226 126.591 48.3233 129.934 52.1298L131.624 51.8663C128.137 47.6577 123.617 44.4266 118.506 42.4892C113.396 40.5518 107.87 39.9746 102.469 40.8139Z" fill="black"/>
<path d="M87.2753 91.5211C90.3937 94.726 94.2346 97.1372 98.4763 98.5527C102.718 99.9682 107.237 100.347 111.655 99.657C116.073 98.9672 120.262 97.2288 123.87 94.5876C127.479 91.9464 130.402 88.4791 132.395 84.4761L87.2753 91.5211Z" fill="black"/>
<path d="M127.428 52.5172L82.2587 59.5722C84.2477 55.5585 87.171 52.0809 90.7831 49.4316C94.3952 46.7823 98.5904 45.0387 103.016 44.3475C107.442 43.6562 111.969 44.0374 116.217 45.459C120.465 46.8807 124.31 49.3012 127.428 52.5172Z" fill="black"/>
<path d="M169.834 48.1274L40.5356 68.3057L40.761 69.7499L170.059 49.5717L169.834 48.1274Z" fill="black"/>
<path d="M173.904 75.1703L44.3496 94.7998L44.5689 96.2469L174.123 76.6174L173.904 75.1703Z" fill="black"/>
<path d="M63.5647 79.1265C63.8265 80.6702 63.6809 82.2554 63.1421 83.7255C62.6276 85.1376 61.7371 86.3822 60.5667 87.3251C59.3614 88.271 57.9335 88.8916 56.4196 89.1275C54.9058 89.3634 53.3567 89.2067 51.9207 88.6724C50.5157 88.1284 49.2876 87.2081 48.3708 86.0125C47.4101 84.7745 46.7881 83.3078 46.5661 81.7566C46.2754 80.1331 46.4072 78.462 46.9489 76.9041C47.4425 75.5111 48.3282 74.2904 49.4994 73.3891C50.7396 72.4702 52.1913 71.8786 53.7205 71.6688C55.2185 71.4104 56.7573 71.5335 58.1952 72.0268C59.5789 72.5299 60.7876 73.4226 61.6754 74.5972C62.6879 75.9172 63.3391 77.4783 63.5647 79.1265ZM55.8584 85.5153C56.1081 85.481 56.3483 85.3965 56.5644 85.2667C56.7623 85.1535 56.9322 84.9971 57.0616 84.8093C57.1901 84.6167 57.2921 84.4077 57.3649 84.1879C57.4441 83.9478 57.4941 83.6991 57.514 83.4471C57.514 83.1885 57.5488 82.92 57.5488 82.6416C57.5471 82.3658 57.5305 82.0903 57.4991 81.8163C57.4643 81.5429 57.4345 81.2744 57.3997 81.0109C57.3649 80.7474 57.3251 80.5137 57.2803 80.2651L57.2356 79.9519C57.2356 79.8773 57.2008 79.753 57.1759 79.5889C57.1295 79.3403 57.0898 79.0768 57.0566 78.7984C57.0163 78.5133 56.9581 78.231 56.8826 77.9532C56.808 77.6648 56.7235 77.3814 56.639 77.113C56.5512 76.8489 56.4309 76.5967 56.281 76.3622C56.142 76.144 55.9749 75.945 55.7838 75.7706C55.5993 75.6018 55.3754 75.4821 55.1325 75.4225C54.8562 75.353 54.5684 75.3411 54.2873 75.3877C54.0383 75.4256 53.7977 75.5063 53.5763 75.6264C53.3825 75.7347 53.2132 75.8819 53.0791 76.0589C52.9539 76.2383 52.8504 76.4319 52.7709 76.6357C52.6894 76.8568 52.6359 77.0873 52.6118 77.3218C52.6118 77.5604 52.577 77.819 52.572 78.0725C52.5678 78.3284 52.5811 78.5842 52.6118 78.8382C52.6449 79.0901 52.6748 79.3387 52.7013 79.584C52.7273 79.8145 52.7655 80.0435 52.8156 80.2701C52.8156 80.4341 52.8604 80.5535 52.8703 80.633C52.8803 80.7126 52.8703 80.8021 52.9201 80.9413C52.9698 81.0805 52.9897 81.3639 53.0195 81.5926C53.049 81.8318 53.0921 82.0692 53.1488 82.3035C53.2034 82.5472 53.2581 82.8007 53.3178 83.0245C53.3779 83.2619 53.451 83.4959 53.5366 83.7255C53.6208 83.9412 53.7171 84.152 53.8249 84.3569C53.9208 84.5505 54.0411 84.7309 54.1829 84.8939C54.314 85.0458 54.4664 85.1781 54.6353 85.2866C54.8026 85.3981 54.9901 85.4758 55.1872 85.5153C55.4094 85.5527 55.6362 85.5527 55.8584 85.5153Z" fill="#EF233C"/>
<path d="M74.0801 86.0624L65.6827 87.3799L65.101 83.651L66.6969 83.4025L65.2054 73.956L63.5995 74.2096L63.0277 70.5503L73.5829 68.9046C74.3401 68.7793 75.1095 68.7443 75.8749 68.8002C76.5179 68.856 77.1441 69.0349 77.7195 69.3272C78.2819 69.6214 78.7504 70.0676 79.0718 70.6149C79.4546 71.2699 79.7014 71.9954 79.7977 72.7479C79.8861 73.2003 79.8801 73.6662 79.78 74.1162C79.6799 74.5662 79.4879 74.9907 79.216 75.363C78.5601 76.1831 77.6707 76.7847 76.6654 77.0883C77.4949 77.0943 78.3085 77.3153 79.0271 77.7296C79.2759 77.8994 79.4857 78.1203 79.6425 78.3775C79.7994 78.6346 79.8997 78.9222 79.9369 79.2212L80.0861 80.1857C80.109 80.3458 80.1507 80.5027 80.2104 80.653C80.2701 80.7768 80.3609 80.883 80.4739 80.9613C80.6384 81.0613 80.8284 81.1114 81.0208 81.1055C81.3356 81.1098 81.6502 81.0848 81.9604 81.0309L82.5421 84.7498L79.8275 85.1724L79.1911 85.2719L78.5647 85.3415C78.3517 85.3642 78.1375 85.3741 77.9233 85.3713C77.7592 85.3713 77.5653 85.3464 77.3366 85.3216C77.1437 85.2992 76.9547 85.2507 76.7748 85.1774C76.602 85.1037 76.4357 85.0155 76.2776 84.9139C76.1129 84.8068 75.971 84.6683 75.86 84.5062C75.7371 84.3245 75.6353 84.1293 75.5567 83.9245C75.4578 83.6765 75.3877 83.4179 75.3479 83.1539L75.0347 81.1303C74.9854 80.7933 74.9089 80.4607 74.806 80.136C74.7215 79.8715 74.5938 79.6229 74.4281 79.4001C74.2639 79.1757 74.0265 79.0157 73.7569 78.9477C73.4128 78.8738 73.057 78.8738 72.7128 78.9477L71.7185 79.1068L72.2604 82.5871L73.5133 82.3932L74.0801 86.0624ZM71.9074 76.6159C72.229 76.5681 72.5453 76.4898 72.8521 76.3823C73.1278 76.2855 73.3876 76.1481 73.6227 75.9746C73.8486 75.8066 74.0213 75.577 74.1199 75.3133C74.2279 75.0176 74.2554 74.6984 74.1994 74.3886C74.1725 74.1428 74.0933 73.9057 73.9673 73.6931C73.8412 73.4804 73.6712 73.2971 73.4686 73.1555C73.016 72.8706 72.4692 72.7759 71.9472 72.892L70.6943 73.0859L71.2611 76.7154L71.9074 76.6159Z" fill="#EF233C"/>
<path d="M90.4871 70.0181L88.9657 70.2568L90.4573 79.7032L91.919 79.4745L92.5007 83.1984L83.5514 84.5905L82.9697 80.8716L84.4961 80.633L83.0045 71.1865L81.513 71.4152L80.9412 67.756L89.8905 66.3589L90.4871 70.0181Z" fill="#EF233C"/>
<path d="M106.163 79.9817C105.298 81.0358 104.005 81.697 102.275 81.9705C101.318 82.1226 100.346 82.1494 99.3817 82.05C98.482 81.9539 97.6029 81.7174 96.7765 81.349C95.9797 80.997 95.2471 80.5148 94.6087 79.9221C93.945 79.2953 93.3994 78.5543 92.9979 77.7345C92.549 76.8227 92.2454 75.8464 92.098 74.8409C91.9014 73.6691 91.9014 72.4727 92.098 71.3009C92.2779 70.215 92.6608 69.1726 93.2266 68.2284C93.8095 67.2788 94.6063 66.4786 95.5534 65.8916C96.6124 65.2309 97.7979 64.7991 99.0337 64.6238C100.247 64.3793 101.506 64.5219 102.633 65.0315L102.986 64.3155L106.253 63.8184L107.352 70.8485L104.368 71.3159C104.274 70.9589 104.161 70.6071 104.03 70.2618C103.907 69.9534 103.756 69.6571 103.578 69.3768C103.417 69.1059 103.206 68.868 102.956 68.6758C102.697 68.4945 102.402 68.3708 102.091 68.3129C101.702 68.2375 101.302 68.2375 100.913 68.3129C100.472 68.3726 100.048 68.5196 99.6651 68.7454C99.3334 68.9444 99.0566 69.223 98.8596 69.5558C98.6716 69.88 98.523 70.2255 98.4172 70.585C98.3127 70.9828 98.2576 71.3919 98.2531 71.8031C98.2436 72.2128 98.2552 72.6227 98.2879 73.0311C98.3127 73.3941 98.3625 73.7968 98.4321 74.2343C98.9094 77.2804 100.235 78.6344 102.41 78.2963C102.907 78.2266 103.368 77.9961 103.722 77.64C103.89 77.4742 104.015 77.2696 104.085 77.0441C104.155 76.8186 104.169 76.5793 104.125 76.3473C104.088 76.0644 104.017 75.7871 103.911 75.522L102.25 75.7706L101.753 72.6185L108.217 71.6241L109.614 80.5734L106.75 81.0209L106.163 79.9817Z" fill="#EF233C"/>
<path d="M118.19 65.6876L116.669 65.9262L118.16 75.3727L119.622 75.144L120.204 78.8629L111.254 80.26L110.673 76.5361L112.194 76.3024L110.703 66.856L109.211 67.0896L108.639 63.4304L117.588 62.0283L118.19 65.6876Z" fill="#EF233C"/>
<path d="M137.585 62.6448C137.36 62.6388 137.137 62.6864 136.934 62.7837C136.731 62.8811 136.554 63.0254 136.418 63.2048C136.282 63.3841 136.191 63.5932 136.152 63.8149C136.112 64.0366 136.127 64.2644 136.193 64.4794L138.003 76.0688L131.718 77.0631L125.345 68.4171L125.996 72.5736C126.007 72.7914 126.063 73.0047 126.16 73.1998C126.258 73.395 126.395 73.5677 126.563 73.7071C126.968 73.9142 127.435 73.9655 127.875 73.8513L128.457 77.5752L121.849 78.6044L121.273 74.8805C121.546 74.8435 121.811 74.763 122.058 74.6418C122.231 74.5571 122.384 74.4388 122.511 74.2938C122.619 74.1491 122.684 73.9768 122.7 73.7966C122.729 73.6176 122.737 73.4357 122.724 73.2547C122.71 73.0447 122.686 72.8356 122.65 72.6283L121.481 65.1705L119.856 65.4241L119.289 61.7847L126.906 60.5964L133.628 69.9087L132.867 65.0462C132.842 64.8822 132.822 64.7579 132.802 64.6783C132.779 64.5586 132.748 64.4406 132.708 64.3253C132.672 64.1957 132.604 64.0776 132.509 63.9823C132.412 63.8972 132.307 63.8223 132.196 63.7585C132.043 63.6761 131.872 63.635 131.699 63.6392C131.46 63.6379 131.222 63.6613 130.988 63.7088L130.416 60.0495L137.018 59.0552L137.585 62.6448Z" fill="#EF233C"/>
<path d="M154.36 68.7803C154.45 68.9891 154.519 69.1433 154.574 69.2477C154.63 69.3497 154.704 69.4407 154.793 69.5162C154.831 69.5515 154.877 69.5778 154.927 69.5933C154.977 69.6088 155.029 69.613 155.081 69.6056L155.976 69.4664L156.558 73.1854L147.991 74.5228L147.4 70.8039L148.657 70.6C148.478 69.4664 148.16 68.9344 147.698 69.009L144.844 69.4515C144.802 69.4559 144.763 69.4717 144.729 69.4971C144.696 69.5226 144.67 69.5567 144.655 69.5957C144.617 69.6676 144.6 69.7484 144.605 69.8294C144.605 69.9039 144.605 70.0183 144.64 70.1625C144.679 70.3872 144.751 70.605 144.854 70.8088C144.968 71.0475 145.103 71.1519 145.247 71.132L146.117 70.9928L146.669 74.7266L139.638 75.8254L139.077 72.0916C139.35 72.0554 139.617 71.9852 139.872 71.8827C140.12 71.7846 140.341 71.6273 140.514 71.4245C140.687 71.2217 140.808 70.9796 140.867 70.7193C140.955 70.2576 141.017 69.7911 141.051 69.3222L141.737 62.0037L139.539 62.3468L138.967 58.6875L149.269 57.0767L154.36 68.7803ZM147.086 66.4535L145.048 61.3773L144.71 66.8463L147.086 66.4535Z" fill="#EF233C"/>
<path d="M164.07 68.2037L166.059 67.8905L166.392 64.1219L169.375 63.6595L170.523 71.0128L157.288 73.0861L156.697 69.3671L158.188 69.1335L156.697 59.687L155.175 59.9257L154.624 56.2664L163.623 54.8594L164.189 58.5087L162.593 58.7573L164.07 68.2037Z" fill="#EF233C"/>
<path d="M80.459 46.5415C79.6659 46.3134 78.9604 45.8507 78.4354 45.214L76.3373 42.9668C75.7259 42.3945 75.3131 41.6421 75.159 40.8189C75.0844 40.1477 75.4076 39.4815 76.1235 38.8302C76.8395 38.1789 77.4659 37.8905 78.0725 37.9552C78.7799 38.0746 79.4197 38.4475 79.8723 39.0042L80.2352 39.392L78.9127 40.63L78.4702 40.1328C78.265 39.8897 78.0131 39.6903 77.7294 39.5461C77.6049 39.5292 77.4781 39.541 77.3588 39.5809C77.2396 39.6207 77.1311 39.6874 77.0417 39.7758C76.9523 39.8642 76.8845 39.972 76.8434 40.0908C76.8023 40.2096 76.789 40.3362 76.8047 40.461C76.9403 40.7632 77.1327 41.0366 77.3714 41.2664L80.1606 44.2495C80.3801 44.5084 80.6555 44.7141 80.9661 44.8511C81.0962 44.8907 81.2351 44.8916 81.3658 44.8536C81.4964 44.8156 81.6132 44.7405 81.7019 44.6373C81.8093 44.5512 81.8897 44.4361 81.9338 44.3057C81.9778 44.1753 81.9836 44.035 81.9505 43.9015C81.8393 43.5657 81.6482 43.262 81.3937 43.0165L80.7274 42.3055L80.0761 42.917L79.3005 42.0867L81.1898 40.3217L84.4066 43.7672L83.5266 44.6224L82.8753 44.1252C82.9958 44.4231 83.0168 44.752 82.9353 45.0629C82.8538 45.3737 82.674 45.65 82.4228 45.8504C82.1806 46.1223 81.8734 46.3283 81.53 46.4491C81.1865 46.57 80.818 46.6018 80.459 46.5415Z" fill="#EF233C"/>
<path d="M85.8534 42.4794C85.4093 42.5008 84.9722 42.3633 84.6203 42.0916C84.1776 41.7347 83.7978 41.3061 83.4967 40.8237L80.0463 35.5785L81.5776 34.5841L85.1772 40.0531C85.3559 40.3549 85.5924 40.6185 85.8732 40.8287C85.9924 40.8864 86.1245 40.9123 86.2566 40.9037C86.3887 40.8951 86.5163 40.8524 86.627 40.7798C86.7377 40.7072 86.8277 40.6071 86.8882 40.4893C86.9486 40.3715 86.9775 40.2401 86.972 40.1078C86.8905 39.7663 86.7436 39.4438 86.5395 39.1582L82.9399 33.6892L84.4811 32.6948L87.9614 37.9401C88.2879 38.406 88.5333 38.9237 88.6873 39.4714C88.7987 39.9028 88.751 40.3599 88.5531 40.7591C88.2577 41.2256 87.8664 41.6238 87.4052 41.9273C86.944 42.2307 86.4235 42.4325 85.8782 42.5191L85.8534 42.4794Z" fill="#EF233C"/>
<path d="M87.8073 30.9893L89.7016 30.144L95.0512 37.7857L93.4702 38.5066L92.3466 36.7914L91.0241 37.383L91.5212 39.3717L89.9154 40.0877L87.8073 30.9893ZM91.7102 35.8219L89.7215 32.6747L90.7158 36.2693L91.7102 35.8219Z" fill="#EF233C"/>
<path d="M93.3111 28.7421L95.613 28.1405C96.3568 27.8921 97.1591 27.8799 97.91 28.1057C98.4868 28.3294 98.9044 28.8763 99.1082 29.7364C99.2485 30.2102 99.2907 30.7075 99.2325 31.1981C99.1549 31.6105 98.9239 31.9782 98.5862 32.2273L100.928 36.2396L99.0734 36.7368L97.0151 32.9731L96.3588 33.1471L97.4029 37.1743L95.6081 37.6416L93.3111 28.7421ZM96.6323 31.9191C96.8 31.8935 96.9601 31.8312 97.1011 31.7367C97.242 31.6422 97.3603 31.5177 97.4477 31.3722C97.5659 31.0342 97.5659 30.6661 97.4477 30.3281C97.38 29.9821 97.2062 29.6658 96.9505 29.4232C96.8155 29.338 96.6625 29.2856 96.5037 29.2701C96.3448 29.2545 96.1846 29.2763 96.0357 29.3337L95.4092 29.4978L96.0804 32.0632L96.6323 31.9191Z" fill="#EF233C"/>
<path d="M102.196 26.8878L104.264 26.6938L106.864 35.673L105.149 35.8321L104.627 33.8433L103.18 33.9776L103.016 36.021L101.271 36.1801L102.196 26.8878ZM104.339 32.7197L103.449 29.0903L103.245 32.8191L104.339 32.7197Z" fill="#EF233C"/>
<path d="M108.102 26.5347L109.405 26.6242L111.115 31.5264L111.438 26.7634L112.99 26.8728L112.363 36.0308L111.105 35.9463L109.42 30.7408L109.072 35.7972L107.476 35.6878L108.102 26.5347Z" fill="#EF233C"/>
<path d="M115.928 28.7967L114.541 28.4934L114.834 27.1411L119.418 28.1355L119.125 29.4828L117.763 29.1845L116.102 36.8063L114.262 36.4036L115.928 28.7967Z" fill="#EF233C"/>
<path d="M121.094 28.6626L124.857 30.01L124.42 31.2281L122.406 30.5022L121.581 32.8141L123.142 33.3709L122.7 34.5989L121.143 34.0371L120.149 36.7468L122.187 37.4776L121.76 38.6758L117.991 37.2887L121.094 28.6626Z" fill="#EF233C"/>
<path d="M126.583 30.7856L130.142 32.6103L129.556 33.7588L127.646 32.7644L126.538 34.9321L128.029 35.6879L127.438 36.8463L125.946 36.0906L124.634 38.656L126.558 39.6504L125.981 40.7691L122.401 38.9394L126.583 30.7856Z" fill="#EF233C"/>
<path d="M86.6688 110.777C86.6035 109.954 86.789 109.131 87.2007 108.416L88.563 105.666C88.8825 104.892 89.4418 104.24 90.159 103.807C90.7606 103.499 91.5063 103.568 92.3863 104.001C93.2664 104.433 93.7287 104.925 93.8779 105.492C94.0138 106.196 93.8921 106.925 93.5348 107.546L93.2962 108.043L91.6704 107.237L91.9588 106.661C92.1158 106.384 92.214 106.077 92.2471 105.761C92.2471 105.537 92.1029 105.353 91.8046 105.204C91.6963 105.127 91.5669 105.086 91.4342 105.086C91.3016 105.086 91.1722 105.127 91.0638 105.204C90.8238 105.438 90.6313 105.717 90.4971 106.024L88.6873 109.679C88.5154 109.983 88.4199 110.324 88.4089 110.673C88.4179 110.808 88.4658 110.938 88.547 111.046C88.6282 111.155 88.7391 111.238 88.8663 111.284C88.9819 111.359 89.1166 111.399 89.2541 111.399C89.3916 111.399 89.5263 111.359 89.6419 111.284C89.9175 111.062 90.1343 110.775 90.2733 110.449L90.7059 109.579L89.9054 109.181L90.4026 108.187L92.7195 109.331L90.6263 113.557L89.5276 113.015L89.7811 112.229C89.5361 112.435 89.2323 112.559 88.9128 112.583C88.5934 112.608 88.2744 112.531 88.0012 112.363C87.6644 112.231 87.366 112.017 87.1333 111.74C86.9005 111.463 86.7409 111.132 86.6688 110.777Z" fill="#EF233C"/>
<path d="M93.689 114.377C93.3866 114.051 93.2103 113.628 93.1918 113.184C93.177 112.615 93.2611 112.048 93.4404 111.508L95.2302 105.487L96.9902 106.014L95.1258 112.279C95.0121 112.611 94.9632 112.962 94.9816 113.313C95.0012 113.448 95.0626 113.573 95.1572 113.671C95.2517 113.769 95.3746 113.835 95.5086 113.86C95.6339 113.913 95.7727 113.924 95.9049 113.893C96.0372 113.862 96.1561 113.789 96.2445 113.686C96.4529 113.404 96.6049 113.085 96.6919 112.746L98.5564 106.477L100.326 107.004L98.5365 113.025C98.3893 113.573 98.1506 114.092 97.8305 114.561C97.5715 114.924 97.1902 115.182 96.7566 115.287C96.2101 115.393 95.645 115.35 95.1208 115.162C94.5833 115.03 94.0898 114.759 93.689 114.377Z" fill="#EF233C"/>
<path d="M102.245 107.267L104.304 107.526L104.905 116.838L103.195 116.624L103.111 114.581L101.669 114.402L101.072 116.361L99.327 116.142L102.245 107.267ZM103.086 113.427L102.996 109.693L102.002 113.293L103.086 113.427Z" fill="#EF233C"/>
<path d="M106.357 107.739L108.739 107.635C109.517 107.55 110.304 107.706 110.991 108.082C111.268 108.301 111.488 108.583 111.632 108.905C111.775 109.227 111.839 109.58 111.816 109.932C111.858 110.423 111.796 110.918 111.632 111.384C111.47 111.772 111.166 112.083 110.782 112.254L112.244 116.674L110.33 116.758L109.112 112.646L108.43 112.676L108.609 116.833L106.755 116.912L106.357 107.739ZM108.938 111.543C109.107 111.553 109.276 111.526 109.433 111.464C109.591 111.401 109.732 111.304 109.847 111.18C110.036 110.874 110.115 110.512 110.071 110.156C110.084 109.802 109.985 109.454 109.788 109.161C109.675 109.048 109.537 108.963 109.384 108.915C109.232 108.866 109.07 108.855 108.913 108.883L108.271 108.913L108.386 111.563L108.938 111.543Z" fill="#EF233C"/>
<path d="M113.636 107.123L115.664 106.695L119.284 115.316L117.593 115.669L116.848 113.765L115.431 114.064L115.5 116.112L113.78 116.475L113.636 107.123ZM116.435 112.671L115.127 109.191L115.356 112.92L116.435 112.671Z" fill="#EF233C"/>
<path d="M117.688 106.218L118.901 105.746L122.526 109.465L120.815 105.015L122.262 104.453L125.573 113.015L124.4 113.467L120.666 109.49L122.496 114.223L121.004 114.8L117.688 106.218Z" fill="#EF233C"/>
<path d="M124.405 104.831L123.177 105.532L122.491 104.334L126.568 102.012L127.254 103.21L126.041 103.911L129.899 110.688L128.273 111.607L124.405 104.831Z" fill="#EF233C"/>
<path d="M126.826 101.798L130.013 99.3818L130.794 100.411L129.088 101.704L130.58 103.648L131.897 102.653L132.683 103.692L131.365 104.687L133.106 106.979L134.831 105.671L135.596 106.666L132.39 109.097L126.826 101.798Z" fill="#EF233C"/>
<path d="M130.361 99.044L133.21 96.2349L134.115 97.1547L132.593 98.6462L134.304 100.381L135.482 99.218L136.397 100.148L135.233 101.321L137.257 103.374L138.793 101.853L139.688 102.753L136.824 105.582L130.361 99.044Z" fill="#EF233C"/>
</g>
<defs>
<clipPath id="clip0_522_5406">
<rect width="214.783" height="143.188" fill="white"/>
</clipPath>
</defs>
</svg>
