<svg width="119" height="118" viewBox="0 0 119 118" fill="none" xmlns="http://www.w3.org/2000/svg">
<path d="M56.8385 20.2328C57.6983 18.9678 59.7505 19.441 61.0601 18.3082C61.2567 18.1408 61.4146 17.9333 61.523 17.6999C61.5688 17.5329 61.473 17.268 61.2939 17.3211C60.9369 17.4267 61.0345 17.7341 60.4109 18.1117C59.2394 18.815 57.7037 18.5766 56.6868 19.5761C55.8366 20.4127 55.8687 21.6853 55.2398 22.5916C55.198 22.6583 55.1598 22.7272 55.1255 22.7981C55.0393 22.9568 55.2178 23.1597 55.385 23.0553C56.1882 22.555 56.2346 21.1219 56.8385 20.2328ZM65.8272 15.9435C65.4524 16.4715 64.8693 17.7353 63.5543 18.4244C63.2793 18.5646 62.9882 18.6712 62.6874 18.7418C62.6254 18.7597 62.5719 18.799 62.5366 18.8527C62.5014 18.9064 62.4868 18.9708 62.4954 19.0343C62.5041 19.0978 62.5354 19.156 62.5837 19.1985C62.6321 19.241 62.6942 19.2649 62.7588 19.2657C64.1689 19.1401 65.826 17.4214 66.1866 16.0927C66.1973 16.0476 66.1915 16.0002 66.1702 15.9589C66.149 15.9177 66.1137 15.8852 66.0706 15.8673C66.0275 15.8494 65.9794 15.8472 65.9348 15.8612C65.8903 15.8751 65.8521 15.9043 65.8272 15.9435ZM64.4242 21.5715C64.4681 21.5954 64.5181 21.6062 64.5681 21.6024C64.6181 21.5986 64.6658 21.5804 64.7056 21.5501C64.7453 21.5198 64.7752 21.4787 64.7917 21.4318C64.8082 21.3848 64.8106 21.3341 64.7984 21.2859C64.6461 20.782 63.7614 20.3838 63.2318 20.2593C62.1118 20.0602 60.9571 20.2088 59.9254 20.6847C59.9025 20.691 59.881 20.7017 59.8622 20.7162C59.8435 20.7307 59.8278 20.7487 59.816 20.7692C59.8043 20.7897 59.7967 20.8123 59.7938 20.8357C59.7909 20.8592 59.7926 20.8829 59.799 20.9056C59.8053 20.9284 59.8161 20.9497 59.8307 20.9683C59.8453 20.9869 59.8635 21.0025 59.8842 21.0141C59.9049 21.0257 59.9277 21.0332 59.9513 21.0361C59.9749 21.039 59.9989 21.0373 60.0218 21.031C60.2003 21.0045 60.3788 20.9862 60.5507 20.9561C60.7227 20.926 60.897 20.8788 61.0702 20.8458C63.5388 20.372 64.0684 21.3921 64.4242 21.5715ZM64.7146 22.4234C63.7031 21.5479 62.4696 21.6812 60.9571 21.8706C60.9286 21.8691 60.9 21.8734 60.8731 21.8832C60.8463 21.893 60.8218 21.9081 60.801 21.9276C60.7803 21.9471 60.7637 21.9706 60.7524 21.9967C60.7411 22.0227 60.7353 22.0508 60.7353 22.0792C60.7353 22.1075 60.7411 22.1356 60.7524 22.1616C60.7637 22.1877 60.7803 22.2112 60.801 22.2307C60.8218 22.2502 60.8463 22.2653 60.8731 22.2751C60.9 22.285 60.9286 22.2892 60.9571 22.2877C62.8522 22.368 63.5525 21.962 64.5777 23.2388C64.949 23.7008 65.6344 23.2211 64.7146 22.4234ZM73.5866 16.7252C73.5297 16.4093 73.4079 16.1084 73.2287 15.8412C73.0496 15.574 72.817 15.3461 72.5453 15.1717C72.3419 15.0449 72.1461 15.324 72.2972 15.4903C72.9934 16.2573 73.1302 17.6391 73.0898 18.6433C73.0749 19.0038 72.9708 19.5206 73.3063 19.5283C74.0031 19.5401 73.7478 17.3524 73.5866 16.7252ZM75.1824 17.2934C75.1598 17.2581 75.1264 17.2309 75.0871 17.2158C75.0478 17.2007 75.0046 17.1984 74.9639 17.2094C74.9233 17.2203 74.8872 17.2439 74.861 17.2766C74.8347 17.3093 74.8198 17.3495 74.8182 17.3913C74.8114 17.655 74.8328 17.9186 74.8819 18.1778C75.0009 19.6528 74.6118 20.2292 74.7629 20.5649C74.7932 20.6156 74.8424 20.6524 74.8999 20.6674C74.9574 20.6823 75.0185 20.6741 75.0699 20.6446C75.565 20.3319 75.6191 17.8769 75.1824 17.2934ZM33.6972 48.918C33.7894 49.4832 33.7371 49.626 33.8216 49.7587C33.9792 50.0077 34.216 49.9947 34.3243 49.8242C34.598 49.3959 33.9959 46.5232 32.6024 45.0918C32.4476 44.945 32.2819 44.8099 32.1068 44.6877C31.9574 44.575 31.7498 44.7939 31.8509 44.9414C32.8273 46.3768 33.4152 47.1958 33.6972 48.918ZM35.6601 47.7008C35.941 48.8718 36.0824 50.0714 36.0814 51.275C36.0891 51.6166 36.0647 51.6343 36.2539 51.8603C36.2845 51.8905 36.3259 51.9075 36.369 51.9075C36.4122 51.9075 36.4536 51.8905 36.4842 51.8603C36.6841 51.6508 36.6871 51.6078 36.6692 50.8366C36.5812 47.135 35.1222 43.6652 33.6347 42.0362C33.4937 41.8816 33.2664 42.0781 33.3557 42.2498C34.2125 43.9012 35.0455 45.1349 35.6601 47.7008ZM71.3214 60.5752C71.9254 60.7044 114.493 68.1714 115.138 68.1915C115.424 68.2003 115.047 68.1644 115.162 68.1915C115.259 68.2044 115.356 68.2093 115.454 68.2062C115.546 68.2227 115.641 68.2139 115.728 68.1809L115.592 68.1986C115.883 68.2523 115.93 67.9124 115.723 67.8717C115.693 67.8658 115.642 67.8316 115.791 67.9443C115.281 67.7046 114.74 67.5375 114.184 67.4481C113.173 67.2121 71.9307 60.3002 71.4267 60.197C71.178 60.1445 71.0709 60.5221 71.3214 60.5752ZM79.3272 79.3454C79.6425 79.3744 111.599 85.8313 111.89 85.6673L111.751 85.6862C111.796 85.7026 111.845 85.7008 111.888 85.6812C111.931 85.6615 111.965 85.6257 111.982 85.5815C111.998 85.5372 111.996 85.4883 111.977 85.4454C111.957 85.4026 111.921 85.3693 111.876 85.3528C110.355 84.8584 79.602 79.0888 79.3295 79.0746C79.1481 79.0658 79.1558 79.3301 79.3272 79.3454ZM72.1663 72.9616C72.4519 71.8277 72.4496 70.7633 72.9 68.09C72.9389 67.9633 72.9424 67.8285 72.9101 67.7C72.7804 67.3714 72.3365 67.3785 72.2645 67.8581C72.0009 69.6075 71.8778 70.791 71.8069 71.7457C71.749 72.1329 71.7506 72.5265 71.8117 72.9133C71.8284 73.105 72.114 73.1699 72.1663 72.9616ZM75.4555 73.6909C75.6762 73.4661 75.9095 73.2525 76.1249 73.0236C78.7316 70.2577 78.7173 70.3863 78.869 70.168C78.9022 70.1084 78.915 70.0397 78.9054 69.9723C78.8958 69.9048 78.8644 69.8423 78.8158 69.7942C78.7673 69.746 78.7042 69.7148 78.6362 69.7053C78.5682 69.6958 78.4989 69.7085 78.4388 69.7414C77.2346 70.8818 76.1433 72.134 75.18 73.4808C75.0664 73.6407 75.3186 73.8266 75.4555 73.6909ZM77.3083 76.6202C77.4678 76.6251 77.6269 76.6031 77.779 76.5553C78.2239 76.4233 78.6779 76.3233 79.1373 76.2562C81.9594 75.7311 82.0356 75.7942 82.104 75.5234C82.1198 75.4595 82.1144 75.3923 82.0887 75.3316C82.063 75.2709 82.0183 75.2201 81.9612 75.1865C81.8379 75.1348 81.6995 75.1308 81.5733 75.1753C79.5259 75.5647 78.8565 75.6709 78.1223 75.8892C77.2702 76.1435 77.3339 76.2344 77.1614 76.3695C77.1376 76.3928 77.1224 76.4234 77.118 76.4562C77.1136 76.4891 77.1203 76.5225 77.1371 76.5512C77.1539 76.5798 77.1799 76.6022 77.2108 76.6147C77.2418 76.6272 77.2761 76.6291 77.3083 76.6202ZM104.35 52.1075C104.141 50.6874 102.347 49.6773 101.606 48.1415C100.654 46.168 101.674 44.8375 101.171 43.2209C101.07 42.8929 100.548 43.0327 100.651 43.3631C101.161 45.0063 99.5768 46.9308 102.006 49.7351C102.752 50.5965 103.752 51.4272 103.801 52.3394C103.795 52.7492 103.694 53.1523 103.507 53.5177C103.32 53.8831 103.051 54.2011 102.72 54.4474C101.624 55.369 99.9659 55.5378 98.3112 56.3118C96.8237 57.0069 95.4939 58.0565 94.0504 58.8825C91.5068 60.3386 87.0621 61.6154 84.5114 60.7469C82.2141 59.9645 81.6459 57.6199 83.4178 56.0859C83.5707 56.1543 85.6347 56.7703 87.8107 57.6352C87.8642 57.6491 87.9207 57.647 87.973 57.6292C88.0254 57.6114 88.0712 57.5788 88.105 57.5353C88.1387 57.4917 88.1587 57.4394 88.1626 57.3846C88.1664 57.3299 88.1539 57.2752 88.1266 57.2275C87.6262 56.214 86.9897 55.2722 86.2345 54.428L86.3898 54.3448C87.7666 54.5992 89.1147 54.988 90.4144 55.5053C90.4638 55.5186 90.5159 55.5187 90.5654 55.5057C90.6149 55.4926 90.6601 55.4668 90.6963 55.4309C90.7325 55.395 90.7586 55.3502 90.7717 55.3011C90.7849 55.252 90.7848 55.2003 90.7714 55.1513C90.3922 54.183 89.8185 53.3012 89.0852 52.5594C89.6516 52.0874 88.7484 52.5004 92.9253 53.0397C92.9774 53.0394 93.0284 53.0255 93.0734 52.9995C93.1184 52.9735 93.1557 52.9362 93.1816 52.8914C93.2075 52.8466 93.2211 52.7959 93.221 52.7443C93.2209 52.6926 93.2072 52.6419 93.1811 52.5972C92.7151 51.6657 92.0192 50.8661 91.1581 50.2726C92.5129 48.2035 92.1952 46.8087 92.8569 45.9656C94.1873 44.2658 97.4889 48.4188 99.6399 46.0034C99.9629 45.6505 100.173 45.2106 100.244 44.7392C100.315 44.2679 100.243 43.7863 100.037 43.3554C99.9183 43.1295 99.5125 43.29 99.6143 43.5324C99.792 43.9873 99.7949 44.4912 99.6224 44.948C99.45 45.4049 99.1142 45.783 98.6789 46.0104C96.7285 46.9928 93.9374 43.4929 92.3309 45.6777C91.5818 46.696 91.9739 47.9197 90.6565 49.9629C90.4446 49.8437 90.2206 49.7468 89.9884 49.6738C89.9252 49.6587 89.8586 49.6663 89.8006 49.6954C89.7425 49.7244 89.6968 49.773 89.6715 49.8324C89.6462 49.8917 89.643 49.9581 89.6625 50.0196C89.6819 50.0811 89.7228 50.1338 89.7777 50.1682C89.9562 50.2632 90.1347 50.354 90.3132 50.4514C89.9662 50.9105 89.5785 51.338 89.1548 51.7287C88.7495 51.6591 88.335 51.6621 87.9309 51.7376C87.8766 51.7544 87.8284 51.7862 87.7918 51.8293C87.7553 51.8724 87.7319 51.925 87.7245 51.9808C87.7172 52.0367 87.7261 52.0934 87.7502 52.1444C87.7743 52.1954 87.8126 52.2385 87.8606 52.2686C88.0986 52.4456 88.132 52.4798 88.1927 52.5299C87.5704 52.9893 86.9165 53.4049 86.2357 53.7737C85.9489 53.7335 85.6615 53.6981 85.3753 53.6604C85.3224 53.6613 85.271 53.6775 85.2273 53.707C85.1835 53.7365 85.1495 53.778 85.1292 53.8265C85.109 53.8749 85.1035 53.9282 85.1134 53.9797C85.1233 54.0312 85.1482 54.0788 85.1849 54.1165C85.2307 54.1631 85.2754 54.2103 85.32 54.2569C84.5764 54.6077 83.8816 55.0523 83.253 55.5797C81.349 57.3013 81.4733 59.4188 83.2036 60.7127C84.8964 61.9812 87.6548 61.6702 89.7373 61.19C91.9611 60.6637 94.0611 59.7152 95.9211 58.3969C99.6756 55.9372 99.7886 56.5319 101.91 55.5903C103.827 54.7395 104.519 53.2539 104.35 52.1075ZM89.9414 54.7106C89.0266 54.3763 88.087 54.113 87.1312 53.9229C87.6489 53.6193 88.1482 53.2858 88.6264 52.9241C89.1594 53.445 89.6035 54.0484 89.9414 54.7106ZM90.8148 50.7576C91.4424 51.1865 91.9747 51.7383 92.3791 52.3789C91.5222 52.2729 90.675 52.1011 89.845 51.865C90.1947 51.519 90.5188 51.1485 90.8148 50.7564V50.7576ZM85.724 54.6929C86.2725 55.3116 86.7633 55.9783 87.1907 56.6847C87.3602 56.965 87.4549 56.847 85.774 56.3307C85.1089 56.127 84.4336 55.9572 83.751 55.8221C84.3783 55.3958 85.0379 55.0182 85.724 54.6929Z" fill="#191919"/>
<path d="M101.633 52.9492C100.192 54.7086 98.689 54.1823 96.9713 54.7888C93.368 56.062 91.1343 59.9094 87.1032 59.6073C85.6835 59.5005 83.8479 59.1483 82.8364 58.1483C82.724 58.0373 82.5229 58.1819 82.6133 58.3194C82.7068 58.4619 82.8099 58.5979 82.9221 58.7265C83.9586 59.9106 87.2728 60.3649 88.8454 60.0392C92.0923 59.366 94.2497 56.3021 97.2027 55.3127C98.6986 54.8118 99.669 55.1452 101.03 54.2613C101.703 53.8308 102.244 53.225 102.593 52.5102C102.613 52.4196 102.627 52.3277 102.635 52.2353C102.634 52.1909 102.62 52.1478 102.595 52.1112C102.57 52.0746 102.534 52.046 102.493 52.0291C102.452 52.0121 102.406 52.0075 102.362 52.0157C102.318 52.0239 102.278 52.0446 102.245 52.0754C101.903 52.4742 101.965 52.5444 101.633 52.9492ZM79.1605 58.2468C79.0215 58.17 78.8614 58.1394 78.7036 58.1595C77.7705 58.1381 76.8566 57.8918 76.0409 57.442C76.0142 57.4167 75.9792 57.4017 75.9422 57.3998C75.9053 57.3979 75.8689 57.4091 75.8396 57.4315C75.8103 57.4539 75.7901 57.486 75.7826 57.5219C75.7751 57.5578 75.7809 57.5952 75.7988 57.6273C75.8783 57.7382 75.9684 57.8413 76.0677 57.9353C76.6032 58.4562 78.6399 58.8934 79.1617 58.5713C79.1897 58.5542 79.2128 58.5303 79.2288 58.5018C79.2448 58.4734 79.2532 58.4413 79.253 58.4087C79.2529 58.3761 79.2444 58.3441 79.2282 58.3157C79.2119 58.2874 79.1887 58.2636 79.1605 58.2468Z" fill="#191919"/>
<path d="M80.4927 56.0676C79.3402 55.1761 80.1482 55.7791 78.4697 54.5891C78.7958 54.3369 79.1114 54.0722 79.4164 53.7949C80.4222 53.8235 81.4258 53.9052 82.4229 54.0398C82.6568 54.0663 82.7656 53.779 82.6746 53.6061C82.2842 52.9592 81.7342 52.4213 81.0764 52.0432C81.3025 51.7679 81.5195 51.4839 81.7274 51.1912C82.8759 51.154 84.0256 51.1958 85.1683 51.3163C85.2192 51.3157 85.2691 51.302 85.313 51.2764C85.3569 51.2509 85.3933 51.2144 85.4187 51.1706C85.444 51.1268 85.4574 51.0772 85.4576 51.0267C85.4577 50.9762 85.4445 50.9266 85.4193 50.8827C84.9026 49.9331 84.1666 49.1183 83.2714 48.505C83.8247 47.266 83.9051 46.6642 84.2109 46.1261C84.3945 45.7975 84.6864 45.5415 85.0377 45.4009C85.389 45.2603 85.7783 45.2437 86.1405 45.3538C87.5155 45.6553 88.4753 47.0205 89.7849 46.6465C89.9819 46.5896 90.1645 46.4916 90.3204 46.3591C90.4721 46.2311 90.2751 45.9821 90.1085 46.0866C89.943 46.1765 89.7609 46.2323 89.573 46.2506C89.3852 46.269 89.1956 46.2495 89.0155 46.1934C87.9707 45.9214 86.9057 44.5537 85.2176 44.8204C83.5927 45.0771 83.507 46.6288 82.7746 48.2643C82.4485 48.1373 82.1009 48.0736 81.7506 48.0766C81.7113 48.0749 81.6721 48.081 81.6353 48.0947C81.5984 48.1084 81.5648 48.1293 81.5364 48.1563C81.508 48.1832 81.4853 48.2156 81.4699 48.2514C81.4544 48.2873 81.4465 48.3259 81.4465 48.3649C81.4465 48.4038 81.4544 48.4424 81.4699 48.4783C81.4853 48.5141 81.508 48.5465 81.5364 48.5734C81.5648 48.6004 81.5984 48.6213 81.6353 48.635C81.6721 48.6487 81.7113 48.6548 81.7506 48.6531C82.016 48.6471 82.2801 48.6922 82.5282 48.7858C82.2162 49.4212 81.8609 50.0349 81.465 50.6225C80.9717 50.6052 80.4794 50.676 80.0114 50.8313C79.7032 50.9724 79.3652 51.3287 79.5776 51.6821C79.6621 51.8225 79.7954 51.8981 80.2464 52.1901C79.9186 52.56 79.5723 52.9132 79.2087 53.2486C78.8438 53.2707 78.4836 53.3416 78.1377 53.4592C77.8675 53.5461 77.6157 53.6812 77.3946 53.858C77.3324 53.9236 77.2936 54.0075 77.2839 54.0969C77.2742 54.1864 77.2943 54.2765 77.341 54.3536C77.4014 54.4396 77.4787 54.5124 77.5683 54.5678C76.891 54.9835 76.2577 55.4658 75.678 56.0074C74.0852 57.6653 74.6498 59.7144 76.2992 60.1085C77.2274 60.3309 77.2571 59.6955 76.8638 59.6483C76.8876 59.6483 76.6365 59.6052 76.5848 59.5976C76.3832 59.5716 76.1892 59.505 76.0146 59.4018C75.84 59.2986 75.6886 59.161 75.5697 58.9975C75.4509 58.834 75.367 58.6481 75.3234 58.4512C75.2798 58.2544 75.2774 58.0508 75.3162 57.8529C75.5989 56.4074 76.7782 55.8275 77.9836 54.9513C78.1538 54.8274 78.0348 55.0103 80.2916 56.3219C80.4499 56.4104 80.6427 56.1832 80.4927 56.0676ZM75.412 58.7167C75.4168 58.7279 75.4221 58.7444 75.412 58.7167V58.7167ZM81.8297 53.3978C81.2097 53.3294 80.4856 53.2533 80.0019 53.2356C80.2422 52.9941 80.4755 52.7447 80.7016 52.4875C81.1185 52.7374 81.4982 53.0438 81.8297 53.3978ZM83.0292 49.0265C83.6723 49.4577 84.2101 50.0257 84.6036 50.6892C83.7806 50.6214 82.9547 50.5941 82.129 50.6071C82.4594 50.0986 82.76 49.5717 83.0292 49.0289V49.0265ZM80.2327 51.3706C80.4903 51.2684 80.7658 51.2183 81.0431 51.2231C80.9098 51.4017 80.771 51.5775 80.6266 51.7506C80.087 51.3983 80.0935 51.4432 80.2303 51.3706H80.2327ZM78.4269 53.9312C78.2889 54.0433 78.1488 54.1517 78.0068 54.2563L77.8688 54.1584C78.043 54.0584 78.2299 53.982 78.4245 53.9312H78.4269ZM69.3067 110.815C69.3067 110.868 69.328 110.919 69.3658 110.957C69.4036 110.994 69.4549 111.015 69.5084 111.015C69.5619 111.015 69.6132 110.994 69.6511 110.957C69.6889 110.919 69.7102 110.868 69.7102 110.815C69.8815 109.417 69.6393 101.834 69.562 101.304C69.549 101.26 69.5206 101.222 69.4818 101.197C69.4429 101.172 69.3963 101.162 69.3505 101.168C69.3046 101.174 69.2624 101.196 69.2317 101.23C69.201 101.265 69.1837 101.309 69.183 101.355C69.1562 101.729 69.2663 110.43 69.3067 110.815Z" fill="#191919"/>
<path d="M86.7754 90.2343C84.7571 89.8519 82.9674 89.6006 81.8619 89.3982C81.7036 89.3693 81.4912 89.3422 81.4156 89.4826C81.3174 89.6661 81.487 89.8166 81.6982 89.8555C81.8345 89.8809 85.2046 90.4107 86.3392 90.5181C86.3557 91.0293 86.4138 91.5383 86.513 92.0403C86.1988 92.1441 87.8035 91.3854 69.734 100.098C69.2972 99.9079 46.9401 95.8853 46.88 95.8747C46.8732 95.3595 46.8311 94.8454 46.7539 94.336C47.4375 94.1737 52.4778 91.8479 53.2989 91.091C53.3307 91.0574 53.3508 91.0146 53.3561 90.9689C53.3614 90.9231 53.3516 90.8769 53.3283 90.8371C53.3049 90.7973 53.2693 90.766 53.2265 90.748C53.1838 90.7299 53.1363 90.7261 53.0912 90.737C52.7015 90.855 52 91.2715 50.4399 92.0456C46.5462 93.9766 46.479 93.7046 46.316 94.4787C46.2498 94.9412 46.2285 95.4088 46.2523 95.8753C46.2525 95.9196 46.2623 95.9634 46.281 96.0036C46.2997 96.0439 46.3269 96.0797 46.3607 96.1087C46.3945 96.1377 46.4342 96.1592 46.4771 96.1717C46.5199 96.1843 46.565 96.1876 46.6093 96.1815C46.7878 96.2175 47.3197 96.3219 47.4096 96.339C47.2906 97.5509 47.2858 104.4 47.3072 104.686C47.3002 104.817 47.3268 104.947 47.3846 105.064C47.4685 105.3 47.7065 105.263 47.7594 105.123C47.8554 104.946 47.8958 104.744 47.8755 104.544C47.9064 103.984 47.7886 96.4723 47.7832 96.4133C47.8427 96.4251 68.9861 100.425 69.6245 100.452C69.9613 100.465 85.6008 92.9406 85.6621 92.9105C85.5943 94.0533 85.8115 102.892 85.8222 102.982C85.9412 104.01 86.228 103.408 84.0586 104.903C68.5398 115.596 69.9571 114.9 69.4573 114.768C69.3978 114.753 51.3764 110.811 51.3169 110.804C50.9881 110.751 50.6562 110.717 50.3233 110.704C50.137 110.688 50.1055 110.976 50.2798 111.022C50.7439 111.145 51.0533 111.266 51.1533 111.291C51.2128 111.306 69.0301 115.336 69.7024 115.375C69.7947 115.38 85.8597 104.305 86.1601 104.026C86.3178 103.921 86.1601 104 86.2327 102.976C86.2607 102.585 86.1453 94.5832 86.1369 94.2492C86.1372 93.7446 86.0908 93.241 85.9983 92.7447C86.271 92.6323 86.5282 92.4857 86.7635 92.3087C87.086 92.0745 86.9396 90.2655 86.7754 90.2343Z" fill="#191919"/>
<path d="M60.2473 96.4804C67.2605 97.7312 68.5059 98.0881 69.3752 98.1023C69.4008 98.1023 76.8448 94.754 77.1697 94.5493C77.3946 94.4083 77.4963 94.3676 77.5588 94.1912C77.5686 94.1536 77.5632 94.1138 77.5439 94.0801C77.5246 94.0464 77.4928 94.0215 77.4553 94.0106C77.3034 93.9826 77.1464 94.008 77.0114 94.0826C76.9519 94.105 69.6001 97.4503 69.3651 97.6114C69.3056 97.5961 60.2735 95.9482 60.136 95.9653C60.0683 95.9769 60.0014 95.9922 59.9355 96.0113C59.7641 96.052 59.6713 96.3771 60.2473 96.4804Z" fill="#191919"/>
<path d="M32.2323 109.88C31.434 109.008 30.5654 108.202 29.6352 107.47C29.1824 107.108 28.8985 107.515 28.4773 107.97C28.1806 108.343 27.9097 108.736 27.6663 109.145C27.5273 109.336 27.3996 109.535 27.2837 109.74C27.2646 109.77 27.2576 109.807 27.2638 109.842C27.2701 109.877 27.2892 109.909 27.3176 109.931C27.346 109.953 27.3816 109.963 27.4175 109.961C27.4534 109.958 27.4872 109.943 27.5122 109.917C27.8123 109.59 28.1422 109.291 28.4975 109.024C28.7653 108.844 29.0212 108.647 29.2639 108.434C29.6619 108.832 31.3708 110.401 31.748 110.508C31.8539 110.522 32.0526 110.616 32.2169 110.439C32.2758 110.38 32.3135 110.303 32.3242 110.221C32.335 110.138 32.3182 110.054 32.2764 109.982C32.2877 110.035 32.296 110.03 32.2323 109.88ZM40.1875 109.593C40.8914 109.82 41.6631 110.036 42.4651 110.225C42.6097 110.084 42.7525 109.94 42.9066 109.812C45.9744 107.235 45.9126 107.531 45.724 107.387C45.2328 107.019 44.7349 106.66 44.2305 106.31C43.8604 106.601 40.5248 109.334 40.1875 109.593ZM62.763 83.5683C61.9646 82.6964 61.096 81.8904 60.1658 81.1582C59.713 80.7965 59.4292 81.203 59.0085 81.6585C58.7115 82.0312 58.4403 82.4235 58.1969 82.8326C58.0579 83.0242 57.9302 83.2235 57.8143 83.4297C57.7967 83.46 57.7906 83.4956 57.7973 83.53C57.804 83.5644 57.8231 83.5952 57.8509 83.6168C57.8787 83.6383 57.9135 83.6492 57.9488 83.6473C57.984 83.6455 58.0175 83.631 58.0428 83.6067C58.343 83.2798 58.6728 82.981 59.0281 82.714C59.296 82.5337 59.552 82.3366 59.7945 82.124C60.1926 82.5217 61.9014 84.0905 62.2786 84.1967C62.3845 84.2114 62.5833 84.3058 62.7475 84.1282C62.8063 84.0689 62.844 83.9921 62.8547 83.9095C62.8655 83.827 62.8487 83.7432 62.807 83.671C62.8183 83.7211 62.8266 83.7211 62.763 83.5683ZM68.3209 82.3901C68.9555 82.6576 69.5977 82.9022 70.2475 83.1241C71.1185 82.2184 73.3081 80.4525 74.2935 79.672C73.7659 79.3051 73.2263 78.9554 72.6757 78.6235C71.7719 79.4141 69.1824 81.6673 68.3209 82.3901ZM70.7175 83.2804C71.4214 83.5081 72.1931 83.7247 72.9952 83.9129C73.1398 83.7719 73.2826 83.6285 73.4367 83.4999C76.5045 80.9234 76.4426 81.2195 76.254 81.0756C75.7628 80.7079 75.2649 80.3491 74.7605 79.9994C74.3887 80.2903 71.0638 83.0131 70.7175 83.2804Z" fill="#EF233C"/>
<path d="M20.0556 96.3759C20.1984 96.641 20.3385 96.9073 20.4757 97.1748C20.6126 97.4421 20.7798 97.6952 20.9297 97.9548C22.1358 100.038 22.1066 100.384 22.4981 100.28C22.5785 100.257 22.6471 100.205 22.6897 100.134C22.8188 99.9142 22.6338 99.6746 22.4458 99.3283C21.8711 98.193 21.1794 97.1198 20.3817 96.1258C20.2478 95.9541 19.9325 96.1494 20.0556 96.3759ZM14.4662 100.337C14.7331 100.562 15.0259 100.754 15.3385 100.91C18.968 102.933 18.9793 103.017 19.247 102.857C19.4255 102.753 19.447 102.472 18.9579 102.212C15.3046 100.265 14.9119 100.079 14.6429 100.037C14.6046 100.028 14.5641 100.031 14.5276 100.046C14.4911 100.061 14.4605 100.087 14.4406 100.121C14.4206 100.155 14.4123 100.195 14.4169 100.233C14.4216 100.272 14.4389 100.309 14.4662 100.337ZM13.1263 106.692C13.9172 106.775 14.7145 106.779 15.5063 106.704C15.9388 106.672 18.8763 106.389 19.1447 106.089C19.1881 106.045 19.2177 105.989 19.2301 105.929C19.2424 105.869 19.2369 105.807 19.2143 105.749C19.1916 105.692 19.1528 105.643 19.1024 105.607C19.0521 105.571 18.9924 105.551 18.9305 105.548C18.8008 105.531 17.825 105.736 16.9361 105.865C16.0346 105.996 13.1876 106.282 13.1281 106.287C13.0739 106.287 13.0219 106.308 12.9835 106.346C12.945 106.384 12.9233 106.435 12.9231 106.489C12.9228 106.542 12.9441 106.594 12.9822 106.632C13.0203 106.67 13.0721 106.692 13.1263 106.692ZM67.3427 57.3002C66.4793 47.1646 65.3964 45.5746 59.5648 43.8689C57.5341 43.2753 55.47 42.7963 53.3911 42.3998C48.7973 41.5583 44.1592 40.9744 39.4991 40.651C39.4991 40.3849 39.4991 40.12 39.5044 39.8527C40.8229 40.3607 42.3122 39.7607 43.5891 39.3648C44.9365 38.9504 46.2265 38.3709 47.4292 37.6397C50.7374 35.6207 55.7027 30.6564 57.4752 28.5495C57.6132 28.3778 57.5817 28.2917 57.4157 28.0575C57.6466 27.8852 57.9094 27.7597 58.1892 27.6881C58.9627 27.4687 61.3647 27.1365 62.1662 27.0391C63.0081 26.9341 63.9256 26.796 64.517 26.1258C65.5131 24.9983 64.7437 23.6366 63.3502 23.3145C62.85 23.2127 62.3349 23.2051 61.8318 23.292C61.7837 23.292 61.7377 23.311 61.7037 23.3447C61.6697 23.3784 61.6506 23.424 61.6506 23.4717C61.6506 23.5193 61.6697 23.565 61.7037 23.5987C61.7377 23.6324 61.7837 23.6514 61.8318 23.6514C62.7463 23.741 63.5864 23.7758 64.1243 24.413C64.2197 24.5412 64.2847 24.6891 64.3144 24.8457C64.3441 25.0023 64.3378 25.1635 64.2959 25.3173C64.2541 25.4711 64.1777 25.6136 64.0726 25.7341C63.9675 25.8545 63.8363 25.9499 63.6888 26.0131C62.9831 26.4379 62.2447 26.3418 59.3072 26.8391C58.5133 26.8991 57.7448 27.1436 57.064 27.553C56.446 26.5547 55.9457 25.4893 55.573 24.3776C55.0434 22.9298 55.0583 22.7581 54.8489 22.4731C54.4246 21.8967 53.6101 22.3008 53.0597 22.4566C48.5432 23.7406 44.167 25.4676 39.9959 27.612C39.4439 26.0507 38.8071 24.5202 38.0883 23.0271C36.6889 20.1273 35.0812 17.3561 31.9467 16.4557C29.5173 15.7572 26.966 16.3224 24.7335 17.5242C24.436 17.6835 24.1457 17.8528 23.8511 18.0174C23.7601 17.5218 23.7952 17.677 23.769 17.5148C27.3063 17.0959 27.0189 13.3458 26.4328 9.87544C27.0058 9.62491 27.5556 9.32543 28.0762 8.98041C29.1936 8.17211 30.4669 7.10185 29.5298 6.05519C28.9991 5.46519 28.1429 5.51298 27.3813 5.64219C26.0645 1.11689 20.1282 -1.14281 16.7397 2.16119C14.5495 4.29994 14.3906 7.63757 15.7389 10.2359C15.795 10.3622 15.8665 10.4811 15.9519 10.5899C15.9559 10.6348 15.9717 10.6779 15.9978 10.7148C16.024 10.7516 16.0594 10.781 16.1007 10.8C14.8083 11.8856 15.345 13.927 16.8105 14.163C17.7113 14.3105 17.3996 13.8798 17.4525 14.4987C17.5498 15.6342 17.4867 16.7777 17.2651 17.8959C16.6951 17.6522 16.1048 17.4038 15.5176 17.1944C13.1185 16.3424 10.5791 16.238 8.78336 18.0204C6.86568 19.9261 5.4948 24.4408 4.81352 27.0403C3.57771 31.7521 2.28001 37.17 3.92697 41.7903C5.45434 46.0737 9.26115 48.983 13.2631 51.1713C15.3717 52.3512 17.6246 53.2572 19.9664 53.867C20.2294 56.9563 20.6804 60.0331 21.0689 63.1094C22.7254 76.2321 23.8851 89.0051 27.6443 100.733C27.7543 101.076 28.0947 100.981 28.3422 100.94C28.3089 101.187 28.2904 102.452 28.294 102.701C28.2976 102.783 28.3332 102.861 28.3935 102.919C28.4537 102.976 28.5339 103.008 28.6174 103.008C28.7008 103.008 28.7811 102.976 28.8413 102.919C28.9016 102.861 28.9372 102.783 28.9408 102.701C28.9408 102.524 28.9313 101.108 28.8783 100.852C32.9963 100.181 32.4025 100.296 32.6268 100.244C32.8221 101.108 33.1054 101.951 33.4723 102.758C33.5114 102.813 33.5684 102.853 33.6336 102.871C33.6989 102.89 33.7685 102.886 33.8311 102.86C33.8936 102.833 33.9452 102.787 33.9773 102.728C34.0095 102.668 34.0202 102.6 34.0078 102.534C33.6658 101.731 33.3704 100.909 33.123 100.072C33.3392 99.9485 33.5248 99.7782 33.6659 99.5741C33.8071 99.3699 33.9003 99.1369 33.9388 98.8923C34.1902 97.788 34.3461 96.6645 34.4047 95.534C35.8481 75.7483 34.9312 68.132 34.8717 64.2333C34.8265 61.2574 35.0675 57.7362 36.4288 55.0529C36.9798 53.9661 37.6813 54.2771 39.0528 54.4741L54.7471 56.745C55.1419 61.7824 56.1391 66.7554 57.718 71.5593C58.1874 72.9955 58.7297 74.4072 59.3429 75.7891C59.3897 75.9011 59.4627 76.0005 59.5558 76.0792C59.6488 76.1579 59.7594 76.2135 59.8784 76.2416C59.835 76.3566 59.8564 76.2605 59.7802 76.7696C59.7041 77.2788 60.2045 77.3225 60.3157 77.0086C60.3656 76.7822 60.3831 76.5501 60.3675 76.3189C60.9179 76.3472 63.878 76.0416 64.3379 75.9649C64.2035 76.975 64.9466 76.7608 64.9234 76.4251C64.9139 76.2959 64.8187 76.074 64.8044 75.8705C65.3096 75.7289 65.4589 75.4115 65.5922 74.9129C67.3254 68.4801 68.1382 66.6246 67.3427 57.3002ZM34.7515 24.8685C36.8453 27.6545 38.9296 32.5503 39.6204 37.8007C39.65 38.0432 39.6419 38.2887 39.5966 38.5288C39.5953 38.5756 39.5772 38.6204 39.5456 38.6552C39.514 38.6901 39.471 38.7126 39.4242 38.7189C39.3774 38.7252 39.3299 38.7149 39.2901 38.6897C39.2503 38.6645 39.2208 38.626 39.2069 38.5813C39.1676 38.4539 39.1081 38.3359 39.0742 38.2072C38.682 35.4256 37.9631 32.699 36.9322 30.0829C36.2028 28.3567 35.3807 26.6704 34.4695 25.0314C34.4587 25.013 34.4517 24.9927 34.4488 24.9717C34.446 24.9506 34.4473 24.9292 34.4528 24.9086C34.4582 24.8881 34.4677 24.8688 34.4807 24.8519C34.4937 24.835 34.5099 24.8208 34.5284 24.8101C34.5469 24.7994 34.5674 24.7924 34.5886 24.7896C34.6099 24.7867 34.6315 24.7881 34.6522 24.7935C34.6729 24.7989 34.6923 24.8083 34.7094 24.8212C34.7264 24.8341 34.7408 24.8502 34.7515 24.8685ZM23.8137 15.8881C23.1972 16.2834 22.7462 16.1548 22.4916 15.7642C22.4196 15.6625 22.3724 15.5456 22.3538 15.4228C22.3352 15.2999 22.3457 15.1744 22.3845 15.0562C22.3901 15.0372 22.4011 15.0202 22.4163 15.0074C22.4315 14.9945 22.4501 14.9863 22.4699 14.9837C22.4897 14.9811 22.5099 14.9843 22.5279 14.9929C22.5459 15.0015 22.561 15.0151 22.5713 15.032C22.6112 15.1253 22.6605 15.2126 22.6998 15.3058C22.7795 15.4976 22.8783 15.733 23.1479 15.7247C23.5049 15.7135 23.9321 15.2828 24.0148 15.212C24.2337 15.0208 24.5681 15.4091 23.8137 15.8881ZM23.3924 18.2599C21.3545 19.309 19.9926 18.9555 17.8172 18.1579C17.8629 17.9946 17.8973 17.8284 17.9202 17.6605C18.0059 17.1625 17.5923 17.939 23.3258 17.5555C23.3406 17.8257 23.3626 18.0281 23.3924 18.2599ZM16.541 3.22378C19.3238 -0.499708 25.2012 1.12574 26.7916 5.76609C24.8769 6.21862 16.9914 9.79402 16.8099 9.99462C16.588 10.0985 16.5077 10.1274 16.2643 10.2595C15.185 7.90012 14.9856 5.34601 16.541 3.22378ZM16.8105 13.5995C16.5386 13.5221 16.3034 13.3512 16.1471 13.1175C16.024 12.9243 15.9466 12.706 15.9209 12.479C15.8951 12.2519 15.9216 12.022 15.9983 11.8065C16.0751 11.5911 16.2001 11.3957 16.3639 11.2351C16.5278 11.0744 16.7262 10.9527 16.9444 10.879C17.4848 11.0476 17.9401 11.4144 18.2171 11.9045C18.2557 11.9667 18.3156 12.0132 18.3859 12.0355C18.4561 12.0577 18.5321 12.0542 18.6 12.0257C18.6679 11.9971 18.7232 11.9454 18.7559 11.8798C18.7886 11.8143 18.7965 11.7393 18.7782 11.6685C18.5911 11.1071 18.5206 10.5141 18.5711 9.925C18.5806 9.77219 18.0439 10.0755 23.5566 7.59981C24.605 7.12781 27.6026 5.74603 28.7718 6.23278C29.274 6.44164 29.4186 6.87057 28.9997 7.40511C28.2013 8.18629 27.3151 8.87402 26.3585 9.45477C26.2564 8.9004 26.1364 8.34945 25.9985 7.80277C25.9778 7.64136 25.9179 7.48731 25.8242 7.35378C25.8057 7.32485 25.7784 7.30254 25.7463 7.29014C25.7141 7.27773 25.6788 7.27589 25.6455 7.28487C25.6122 7.29385 25.5827 7.31318 25.5613 7.34003C25.5399 7.36688 25.5278 7.39982 25.5267 7.43402C25.5968 8.11596 25.7071 8.79325 25.8569 9.46244C25.7099 9.36654 25.5421 9.30664 25.3671 9.2877C25.1922 9.26875 25.0153 9.29129 24.8509 9.35347C24.6865 9.41564 24.5394 9.51567 24.4216 9.6453C24.3039 9.77493 24.2189 9.93045 24.1736 10.0991C23.9749 10.0842 23.775 10.0937 23.5786 10.1274C23.3837 9.75536 23.1422 9.40925 22.8599 9.09723C22.7629 8.9987 22.5552 9.09723 22.6124 9.2406C22.7584 9.58548 22.9329 9.9178 23.1342 10.2342C22.8176 10.3404 22.526 10.5089 22.2768 10.7298C22.1844 10.5767 22.0531 10.4503 21.896 10.3634C20.9208 9.82765 19.9009 10.9941 20.3299 11.9021C20.6947 12.6738 22.4945 12.9718 22.4434 11.2855C22.4368 11.0838 22.4005 11.1675 22.4743 11.105C22.7329 10.8945 23.0385 10.7484 23.3656 10.679C23.7582 11.3981 24.0963 12.1451 24.3771 12.9139C24.0632 12.9171 23.7506 12.8739 23.4495 12.7859C23.3864 12.7687 23.319 12.7771 23.2621 12.8091C23.2051 12.8412 23.1634 12.8944 23.1461 12.957C23.1287 13.0196 23.1371 13.0865 23.1695 13.1429C23.2019 13.1993 23.2555 13.2407 23.3186 13.2579C23.7246 13.3658 24.1459 13.4057 24.5651 13.3759C24.6189 13.366 24.6698 13.3449 24.7147 13.3139C24.7596 13.283 24.7973 13.243 24.8254 13.1966C24.8535 13.1501 24.8714 13.0983 24.8778 13.0445C24.8842 12.9907 24.8791 12.9361 24.8626 12.8844C24.5803 12.1117 24.2423 11.36 23.8511 10.6354C23.9203 10.6314 23.9898 10.635 24.0582 10.646C24.2028 10.6566 24.0624 10.6247 24.2105 10.9374C24.3001 11.0946 24.4246 11.2295 24.5744 11.332C24.7243 11.4345 24.8956 11.5019 25.0756 11.5292C25.2556 11.5565 25.4394 11.5429 25.6133 11.4894C25.7872 11.436 25.9466 11.3441 26.0794 11.2206C26.1544 11.9428 26.2252 12.803 26.2228 13.5287C25.8301 13.4048 23.6429 14.6497 18.6699 13.5128C18.5278 13.4667 18.3778 13.4498 18.229 13.4632C18.035 13.0797 17.5846 13.8019 16.8105 13.5995ZM13.2179 40.533C13.3057 40.2947 13.2948 40.0315 13.1877 39.8011C13.0806 39.5706 12.8859 39.3915 12.6461 39.3029C12.5708 39.2802 12.5071 39.2297 12.4683 39.1619C12.4294 39.094 12.4183 39.014 12.4373 38.9383C12.7568 36.8078 13.6273 31.9114 13.8355 31.4028C13.9444 31.1367 13.97 30.9137 14.183 30.939C14.6858 30.998 14.0872 32.076 13.0525 38.8315C13.3538 38.9986 13.5925 39.2579 13.7331 39.5706C13.8737 39.8833 13.9086 40.2327 13.8325 40.5667C17.5305 41.1112 20.8 43.0446 23.7577 45.3085C24.1296 45.5929 23.7089 46.0224 23.4513 45.8259C15.3641 39.6291 12.4801 41.9626 13.2179 40.533ZM66.7025 67.5308C66.4436 69.2141 65.9587 70.8171 65.0454 74.3412C64.8758 75.0002 64.9204 75.1955 64.4897 75.2799C63.1897 75.4895 61.8784 75.6234 60.5626 75.6811C60.3528 75.7077 60.1397 75.6727 59.9498 75.5802C59.9331 75.5678 59.9296 75.5655 59.9278 75.546C57.4435 69.4472 55.9238 63.0046 55.4224 56.4459C55.4215 56.3699 55.396 56.2963 55.3496 56.2358C55.3032 56.1754 55.2384 56.1313 55.1648 56.1102L39.0486 53.7856C37.9878 53.6328 36.8769 53.3077 36.1444 54.2145C35.8581 54.6149 35.6318 55.0543 35.4727 55.519C33.3003 60.829 34.5112 66.8742 34.5373 75.0427C34.5522 79.4046 34.0613 94.6307 33.4104 98.0462C33.3921 98.5161 33.2346 98.9702 32.9576 99.3519C32.7196 99.5649 32.7315 99.5177 28.2393 100.242C26.483 94.5015 25.1736 88.6362 24.3224 82.6974C23.8517 79.6665 20.4942 54.2281 20.4549 53.9868C21.7656 54.3098 23.113 54.4633 24.4634 54.4435C24.0393 55.1452 23.5295 55.7924 22.9456 56.3704C22.6921 56.6182 22.5356 56.7102 22.557 56.8955C22.5591 56.9589 22.5812 57.02 22.6202 57.0702C22.6591 57.1205 22.713 57.1574 22.7742 57.1757C23.0033 57.2253 23.1223 57.0855 23.3418 56.8719C24.1662 56.0713 24.8322 55.1248 25.3053 54.0812C26.3388 53.0015 26.838 49.2544 24.5711 46.6354C25.4737 44.9799 27.2361 43.8034 28.908 43.024C33.3331 40.9643 38.9636 41.382 39.3628 41.0923C41.8237 41.5643 49.5968 41.959 57.308 43.9243C63.1087 45.3993 65.0656 46.1008 66.0182 52.0469C66.6876 56.2229 67.2945 63.6781 66.7025 67.5291V67.5308ZM114.265 71.7364C114.123 71.7422 114.156 71.8266 114.234 71.5924C114.366 71.1994 114.319 70.8755 114.27 69.0241C114.268 68.9644 114.25 68.9064 114.218 68.856C113.585 68.7787 113.385 68.7327 108.88 67.955C108.84 68.0659 108.769 68.1631 108.675 68.2351C108.581 68.3071 108.468 68.3507 108.35 68.361C107.903 68.42 107.458 68.0347 107.152 67.7639C106.905 67.5462 107.316 67.7084 104.345 67.1739C101.978 68.2447 100.353 73.6721 97.8233 76.4369C96.8493 77.5024 95.9074 78.3355 96.2281 80.02C96.5084 81.4908 97.6853 82.233 99.1561 82.4838C102.261 83.0148 105.076 81.446 107.521 79.5096C108.83 78.4712 112.467 75.343 112.946 74.8763C113.75 74.0922 114.517 73.1742 114.577 72.0443C114.576 71.9626 114.543 71.8845 114.485 71.8268C114.426 71.7692 114.347 71.7367 114.265 71.7364ZM103.317 69.8484C103.583 69.7945 103.856 69.7899 104.123 69.8348C104.663 69.9171 105.176 70.1252 105.619 70.4419C106.061 70.7587 106.126 70.8614 106.191 71.0744C106.239 71.2278 106.067 71.3222 105.94 71.2655C105.812 71.2158 105.698 71.1346 105.61 71.0295C104.981 70.4831 104.187 70.159 103.353 70.1079C103.213 70.0967 103.159 69.8678 103.318 69.8454L103.317 69.8484ZM101.837 72.3971C103.047 71.9777 105.045 73.009 104.753 73.3907V73.3836C104.553 73.7488 104.199 73.111 103.183 72.8255C102.827 72.7334 102.461 72.6834 102.093 72.6768C101.989 72.6709 101.818 72.691 101.743 72.6036C101.678 72.524 101.73 72.3759 101.838 72.393L101.837 72.3971ZM100.512 74.7394C100.921 74.5832 101.363 74.5311 101.798 74.5877C102.232 74.6444 102.646 74.8081 103 75.0639C103.245 75.202 103.472 75.3684 103.677 75.5595C103.711 75.5951 103.731 75.6415 103.733 75.6902C103.735 75.739 103.72 75.787 103.69 75.8257C103.66 75.8643 103.617 75.8911 103.569 75.9011C103.521 75.9112 103.47 75.9039 103.427 75.8805C102.514 75.3843 102.164 74.8669 100.571 74.9613C100.543 74.9631 100.516 74.9551 100.493 74.939C100.471 74.9228 100.455 74.8993 100.448 74.8726C100.441 74.846 100.444 74.8178 100.456 74.7929C100.468 74.768 100.488 74.7481 100.513 74.7365L100.512 74.7394ZM96.9689 78.6187C97.007 78.0877 97.6692 77.4694 98.241 76.8404C98.7046 76.6849 99.1963 76.629 99.6833 76.6763C100.17 76.7236 100.642 76.873 101.066 77.1148C101.649 77.3401 102.138 77.754 102.454 78.2894C102.771 78.8248 102.895 79.4504 102.808 80.0648C101.13 80.8973 96.8232 80.6713 96.9701 78.6157L96.9689 78.6187ZM102.485 80.2211C102.478 80.223 102.472 80.2253 102.466 80.2282C102.426 80.2436 102.465 80.2276 102.486 80.2182L102.485 80.2211ZM113.942 72.1859C113.942 72.1995 113.942 72.2166 113.942 72.1859V72.1859ZM113.942 72.1688C113.792 73.3618 112.462 74.5129 111.533 75.3076C107.638 78.6423 105.286 80.9126 102.29 81.7132C100.124 82.2903 97.22 82.0672 96.7976 79.8376C97.7674 81.1191 100.108 81.2058 101.744 80.9669C102.476 80.8601 102.582 80.8896 104.027 80.0542C105.68 79.1103 107.262 78.0499 108.761 76.8811C108.825 76.828 111.847 74.3052 112.997 73.1488C114.067 72.0738 113.955 72.0078 113.942 72.1688Z" fill="#191919"/>
<path d="M93.8571 65.422C92.0488 67.2646 90.8594 70.5456 89.3273 72.8395C88.3753 74.2691 86.958 75.5712 86.8575 77.3872C86.7899 78.161 87.0349 78.9296 87.5387 79.5242C88.1712 80.2051 89.1494 80.3172 90.0258 80.4246C91.8108 80.644 94.1605 80.5066 95.3725 79.2015C95.4166 79.1555 95.4427 79.0953 95.446 79.0319C95.4493 78.9685 95.4296 78.9061 95.3906 78.8558C95.3515 78.8055 95.2956 78.7707 95.2329 78.7577C95.1702 78.7447 95.105 78.7544 95.0488 78.7849C94.1401 79.5014 93.017 79.898 91.8561 79.9124C90.9392 79.9573 88.818 79.8705 88.1111 79.1832C87.8366 78.9093 87.6514 78.5598 87.5798 78.1802C89.1905 79.3095 91.2141 79.1997 93.0984 78.5708C99.5774 76.4084 96.9064 73.816 103.808 67.0811C93.033 65.1984 93.9374 65.34 93.8571 65.422ZM93.907 77.6221C92.5763 78.2712 91.088 78.5352 89.6129 78.3837C88.8533 78.2829 88.1335 77.9872 87.5245 77.5259C87.5459 76.4291 88.1825 75.5128 88.8817 74.5918C89.264 74.4027 89.6765 74.2805 90.1008 74.2307C90.5807 74.1798 91.066 74.2296 91.5252 74.3768C91.9843 74.5241 92.4072 74.7654 92.7661 75.0853C93.1251 75.4051 93.4122 75.7963 93.6087 76.2333C93.8053 76.6703 93.9069 77.1435 93.907 77.6221ZM91.8085 74.452C91.821 74.4573 91.8382 74.4632 91.8085 74.452V74.452ZM94.2028 72.9982C93.7428 73.0319 93.4066 72.1722 91.1921 72.3103C91.0766 72.3174 91.0201 72.1333 91.1325 72.0861C91.6799 71.8379 92.2996 71.7959 92.8759 71.9681C94.248 72.2749 94.5223 72.9746 94.2022 72.9982H94.2028ZM95.4665 71.0677C95.2018 71.089 95.1428 70.7084 93.9469 70.4187C93.3814 70.3144 92.8095 70.2474 92.2351 70.2181C92.2143 70.2109 92.196 70.1981 92.1822 70.1811C92.1683 70.1641 92.1595 70.1437 92.1566 70.1221C92.1538 70.1004 92.1571 70.0784 92.1661 70.0585C92.1751 70.0386 92.1895 70.0216 92.2077 70.0093C92.9122 69.6842 94.2605 69.9544 95.025 70.2937C95.748 70.614 95.6986 71.0489 95.4659 71.0677H95.4665ZM96.0913 68.5184C95.8497 68.5555 95.7396 68.4835 95.3993 68.3496C94.7909 68.0454 94.0953 67.9585 93.4298 68.1036C93.3995 68.1033 93.3702 68.0923 93.3474 68.0723C93.3246 68.0524 93.3099 68.025 93.3058 67.9952C93.3018 67.9654 93.3087 67.9351 93.3254 67.9099C93.342 67.8847 93.3673 67.8663 93.3965 67.8581C93.7281 67.7056 94.091 67.6316 94.4564 67.6418C94.8218 67.652 95.1798 67.7463 95.5022 67.9171C95.7483 67.9715 95.9758 68.0886 96.1621 68.257C96.2246 68.3366 96.2222 68.4989 96.0925 68.5184H96.0913Z" fill="#191919"/>
<path d="M80.8807 88.4839C80.512 87.8836 79.9465 87.427 79.279 87.1906C78.9499 87.121 78.9856 87.1965 79.0011 87.1009C79.2433 85.643 78.6774 83.7633 77.4404 83.2512C77.306 83.1922 77.3214 83.2512 77.3369 83.1845C77.3999 82.8798 77.3798 82.5639 77.2788 82.2694C77.1778 81.9749 76.9994 81.7124 76.7621 81.5089C76.7026 81.5573 73.8353 83.8329 73.5348 84.0335C74.654 84.2766 75.9619 84.5557 76.8669 83.8565C77.1846 83.6111 77.0168 83.6081 77.181 83.7031C77.9789 84.1657 78.6935 85.6342 78.3294 87.2095C76.9674 87.4756 77.3179 87.8585 72.0961 87.8431C65.2858 87.8243 65.2917 86.5912 62.4226 86.4106C60.0164 86.2596 57.2777 87.134 55.1892 85.7616C55.2907 84.646 55.5961 83.558 56.0906 82.5508C57.0129 80.2221 56.6856 79.7991 56.9962 78.5624C57.046 78.1968 57.2042 77.8541 57.4507 77.5777C57.6972 77.3014 58.0209 77.1038 58.3808 77.0102C59.904 76.8815 60.7453 78.9336 62.7136 78.6486C64.0309 78.458 64.5706 77.0998 65.5458 77.2698C65.7564 77.3063 65.6356 77.2367 65.1644 77.6928C64.2439 78.5837 64.5777 79.7973 65.3691 80.628C65.472 80.5325 68.8296 77.4881 68.8909 77.4338C68.9938 77.5891 69.1175 77.7298 69.2586 77.8521C69.1545 77.9429 65.7636 80.9059 65.7124 80.9496C66.3403 81.4369 67.0303 81.84 67.7645 82.1485C68.2548 81.7278 66.189 83.5055 72.1402 78.3135C71.7772 78.1114 71.4062 77.9239 71.0281 77.7512C71.6683 77.15 72.3966 76.3181 72.3895 75.4431C72.3817 74.721 71.8492 74.2431 71.2905 74.4153C71.0694 74.515 70.8716 74.6593 70.7098 74.839C70.548 75.0187 70.4258 75.2299 70.351 75.459C70.3201 75.1813 70.2734 74.9056 70.2112 74.633C69.8625 73.1398 68.4428 73.276 68.1418 74.3522C68.0281 75.225 68.1806 76.1115 68.5797 76.8975C68.2804 76.829 67.9734 76.7987 67.6664 76.8072C67.2037 76.7026 66.7192 76.7507 66.2866 76.9441C65.043 76.1836 64.2761 77.0756 63.4508 77.6645C61.9365 78.7448 60.8619 77.2981 59.7505 76.7122C59.4793 76.5342 59.1703 76.4206 58.8475 76.3803C58.5248 76.3401 58.1971 76.3742 57.8898 76.4802C57.5826 76.5861 57.3041 76.7609 57.0762 76.9909C56.8482 77.221 56.6769 77.5002 56.5756 77.8067C56.3012 78.6359 56.1356 79.4967 56.0829 80.3678C55.811 82.0157 54.7858 83.5161 54.5704 85.2306C54.3413 85.2011 52.4106 86.3652 52.0899 88.5936C52.0066 89.1742 52.0684 89.5536 52.6045 89.8438C53.4816 90.3188 54.9601 90.4161 55.9478 90.4763C59.1293 90.6698 61.0583 90.9985 62.2233 89.904C62.9528 90.8114 64.2576 90.9513 65.359 91.005C68.7569 91.17 72.1622 91.1091 75.5519 90.8226C77.9706 90.6238 82.1951 90.3719 80.8807 88.4839ZM70.3831 77.15C70.4896 76.5977 70.971 75.0608 71.4851 74.9499L71.5517 74.9463C71.6375 74.9852 71.7092 75.0493 71.7571 75.1299C71.805 75.2106 71.8268 75.3038 71.8195 75.3971C71.8337 76.1777 71.046 76.9824 70.4599 77.5046C70.3159 77.4468 70.3528 77.5305 70.3831 77.15ZM69.0831 74.095C69.175 74.0871 69.2664 74.1158 69.3371 74.1746C69.8845 74.5363 69.8619 76.7382 69.7649 77.4031L69.6203 77.5335C68.8837 76.7588 68.1322 74.3852 69.0831 74.095ZM78.3972 86.8549C78.3972 86.8313 78.3972 86.8419 78.3972 86.8549V86.8549ZM37.7902 108.702C38.4249 108.969 39.0671 109.213 39.7168 109.435C40.5879 108.53 42.7775 106.764 43.7628 105.984C43.2352 105.617 42.6954 105.267 42.1444 104.935C41.2246 105.74 38.6518 107.979 37.7902 108.702Z" fill="#EF233C"/>
<path d="M50.3501 114.796C49.981 114.196 49.4156 113.739 48.7483 113.503C48.4193 113.433 48.455 113.509 48.4705 113.414C48.7114 111.962 48.1503 110.077 46.9098 109.563C46.7753 109.507 46.7908 109.563 46.8056 109.497C46.8689 109.192 46.8491 108.877 46.7482 108.582C46.6472 108.287 46.4689 108.025 46.2315 107.822C46.172 107.869 43.3047 110.145 43.0042 110.346C44.121 110.588 45.43 110.869 46.3362 110.169C46.6539 109.923 46.4861 109.92 46.6504 110.016C47.4578 110.484 48.1605 111.957 47.7987 113.522C46.4367 113.788 46.7872 114.171 41.5649 114.155C34.7551 114.136 34.7611 112.903 31.892 112.723C29.4858 112.572 26.747 113.446 24.6586 112.074C24.7597 110.958 25.0649 109.87 25.5594 108.863C26.4822 106.534 26.1544 106.112 26.465 104.875C26.5147 104.509 26.6729 104.167 26.9194 103.89C27.1659 103.614 27.4896 103.416 27.8495 103.322C29.3727 103.194 30.2141 105.246 32.1829 104.961C33.4997 104.77 34.0399 103.412 35.0145 103.582C35.2258 103.618 35.105 103.549 34.6337 104.005C33.7133 104.896 34.0483 106.111 34.8378 106.941C34.9413 106.845 38.2989 103.8 38.3602 103.746C38.4631 103.901 38.5866 104.042 38.7273 104.165C38.6238 104.256 35.2329 107.218 35.1817 107.262C35.8096 107.749 36.4996 108.152 37.2339 108.461C37.7259 108.037 35.6547 109.823 41.6089 104.626C41.2388 104.421 40.8771 104.237 40.4969 104.064C41.1377 103.463 41.8683 102.631 41.8588 101.756C41.8469 100.67 40.6141 100.033 39.8198 101.772C39.7892 101.494 39.7425 101.219 39.6799 100.946C39.3319 99.4524 37.9122 99.5893 37.6111 100.665C37.4971 101.538 37.6497 102.424 38.049 103.21C37.7496 103.142 37.4428 103.112 37.1357 103.12C36.673 103.016 36.1886 103.064 35.7559 103.257C33.7067 102.004 33.2861 104.988 31.122 104.225C30.574 104.031 29.86 103.363 29.218 103.025C28.9468 102.847 28.6378 102.733 28.3151 102.693C27.9924 102.653 27.6646 102.687 27.3574 102.793C27.0501 102.899 26.7717 103.073 26.5437 103.304C26.3158 103.534 26.1445 103.813 26.0431 104.119C25.7684 104.949 25.6028 105.81 25.5505 106.681C25.2785 108.328 24.2534 109.829 24.038 111.543C23.8089 111.514 21.8781 112.678 21.5574 114.906C21.4741 115.486 21.536 115.866 22.0721 116.156C22.9485 116.628 24.4277 116.729 25.4148 116.788C28.5969 116.982 30.5259 117.311 31.6903 116.217C32.4197 117.123 33.7252 117.263 34.8265 117.317C38.2245 117.482 41.6297 117.421 45.0195 117.135C47.4399 116.933 51.6644 116.684 50.3501 114.796ZM39.8531 103.463C39.9631 102.893 40.4374 101.311 41.0211 101.258C41.0687 101.273 41.1124 101.298 41.1483 101.332C41.1843 101.366 41.2117 101.408 41.2281 101.455C41.5548 102.227 40.557 103.257 39.9292 103.815C39.7876 103.76 39.8203 103.84 39.8531 103.463ZM38.5524 100.407C38.6444 100.399 38.7357 100.428 38.8065 100.487C39.3551 100.849 39.3289 103.066 39.2337 103.715L39.0897 103.846C38.3531 103.073 37.604 100.698 38.5524 100.407ZM47.8665 113.167C47.8665 113.155 47.8695 113.144 47.8665 113.167V113.167Z" fill="#EF233C"/>
</svg>
