<svg width="144" height="144" viewBox="0 0 144 144" fill="none" xmlns="http://www.w3.org/2000/svg">
<path d="M56.6582 95.06C56.6503 94.7908 56.2287 94.7829 56.2337 95.06C56.2499 95.6779 56.136 96.2924 55.8993 96.8634C55.8685 96.8336 55.8309 96.8115 55.7899 96.799C55.7488 96.7866 55.7053 96.7841 55.6631 96.7918C54.9335 97.0232 54.2982 97.484 53.8517 98.1056C53.5675 98.5056 53.1842 98.8249 52.7394 99.0322C52.2946 99.2396 51.8036 99.3278 51.3144 99.2883C50.3579 99.206 49.3946 99.3198 48.4836 99.6227C47.6109 100.014 46.8928 100.781 45.9298 100.936C44.8559 101.115 43.7763 100.626 42.6916 100.798C41.7065 101.041 40.78 101.479 39.9668 102.086C38.4561 103.017 38.1211 102.767 36.483 102.543C33.7302 102.156 33.2663 104.267 30.7153 104.052C29.7689 103.981 28.6835 103.837 27.974 104.598C27.175 103.807 27.2087 101.506 27.1743 100.723C27.1664 100.593 26.9538 100.552 26.938 100.691C26.6194 102.828 27.0519 105.374 29.4095 106.083C31.4914 106.715 34.8428 105.999 37.0951 105.521C41.2383 104.649 48.6934 102.609 52.3833 100.795C54.602 99.7107 56.7355 97.744 56.6582 95.06ZM42.7317 90.7035C42.1863 91.3126 41.7997 92.0469 41.6063 92.8413C42.406 93.0775 43.2214 93.3718 44.0455 93.608C44.3332 92.286 45.0575 91.0992 46.1017 90.2388H46.0931C45.4962 90.0581 44.9277 89.7945 44.4042 89.4556C43.7704 89.758 43.2021 90.182 42.7317 90.7035Z" fill="#191919"/>
<path d="M28.6105 100.755C30.4827 101.188 31.9847 100.297 35.2838 100.208C37.6657 100.159 40.0563 100.437 42.4382 100.208C44.8201 99.9799 47.0725 99.1229 49.3241 98.4048C51.192 97.8099 53.2561 97.3202 54.8147 96.0637C56.8802 94.402 56.7198 92.2034 55.149 91.5275C53.7887 90.9548 51.9817 91.4559 49.8382 91.5848C49.2511 90.6626 47.5522 90.5531 46.6401 90.3677C46.5459 90.4236 46.4559 90.4863 46.3709 90.5553C45.3959 91.3704 44.6975 92.4677 44.372 93.6961C45.7479 94.1636 47.2453 94.126 48.596 93.5901C49.2074 93.3131 50.0315 92.6437 49.9742 91.9585C51.3128 91.7524 52.6665 91.6597 54.0207 91.6814C56.422 91.8647 56.5122 94.0569 54.6328 95.6707C53.2217 96.8699 51.2958 97.3352 49.5747 97.8815C47.5573 98.6223 45.4891 99.2165 43.3861 99.6592C41.2467 99.9 39.0896 99.941 36.9426 99.7816C34.9064 99.6912 32.8674 99.8779 30.8815 100.336C28.0807 100.783 26.8435 99.6678 26.5736 97.9381C26.4841 97.0674 26.4841 96.1898 26.5736 95.3191C26.6309 94.3813 26.9409 93.2143 28.1566 93.6302C29.1274 93.9646 29.6407 94.9905 30.5958 95.3843C30.98 95.5414 31.3965 95.6034 31.8099 95.5651C32.2232 95.5267 32.6211 95.389 32.9699 95.1638C33.621 94.6175 34.1633 93.9535 34.5686 93.2064C35.0747 92.4771 35.8096 91.9374 36.657 91.6728C37.1663 92.0684 37.8034 92.2628 38.4468 92.2191C38.6363 91.1608 39.1053 90.1723 39.8052 89.3561C40.505 88.5399 41.4104 87.9257 42.4275 87.5769C41.8881 86.8276 41.088 86.3069 40.1844 86.1171C39.614 86.057 39.0375 86.1403 38.5075 86.3596C37.9775 86.5789 37.5107 86.9273 37.1495 87.3729C36.7427 87.891 36.4835 88.5094 36.3992 89.1628C36.3626 89.1947 36.3375 89.2377 36.3276 89.2852C36.1198 89.9781 36.1572 90.7215 36.4336 91.39C34.4791 91.9735 34.1955 93.3496 33.2598 94.3841C32.8776 94.826 32.3358 95.0982 31.7531 95.141C31.1704 95.1839 30.5946 94.9938 30.1519 94.6125C29.4424 94.0397 28.8711 93.2665 27.9167 93.1276C27.6281 93.0636 27.3262 93.1008 27.0617 93.233C26.7972 93.3652 26.5862 93.5843 26.4641 93.8536C26.4094 93.7499 26.3312 93.6604 26.2357 93.5923C25.5198 93.0475 24.4702 94.067 24.8983 95.0199C25.015 95.2471 25.1874 95.441 25.3995 95.5833C25.6769 95.8109 25.9068 96.091 26.0761 96.4074C25.9774 97.4349 26.1697 98.4694 26.6309 99.3928C26.8543 99.7395 27.1443 100.038 27.4842 100.272C27.824 100.506 28.2068 100.67 28.6105 100.755ZM25.5319 95.0521C25.4499 94.9653 25.3865 94.8627 25.3455 94.7506C25.3045 94.6384 25.2868 94.5191 25.2935 94.3999C25.3091 94.2884 25.3587 94.1844 25.4356 94.1021C25.5125 94.0199 25.6129 93.9633 25.7231 93.9402C26.1212 93.9073 26.1484 94.4493 26.1849 94.6691C26.1323 94.9463 26.0998 95.227 26.0875 95.5089C25.91 95.3456 25.6902 95.1981 25.5348 95.0521H25.5319Z" fill="#191919"/>
<path d="M38.8084 92.2697C39.6182 92.3655 40.4199 92.521 41.2068 92.7351C41.3927 91.9178 41.7765 91.1586 42.3244 90.5243C42.7958 89.9781 43.3625 89.522 43.9968 89.1783C43.5397 88.8291 43.1261 88.4265 42.7647 87.9791C41.7807 88.2731 40.8941 88.8267 40.1979 89.5817C39.5018 90.3366 39.0218 91.2652 38.8084 92.2697ZM95.8647 88.3542C95.8009 88.0843 95.3914 88.1989 95.4573 88.4681C95.5982 89.0681 95.6092 89.6913 95.4895 90.2959C95.4497 90.275 95.4059 90.2627 95.361 90.2599C95.3161 90.2571 95.2711 90.2637 95.2289 90.2794C94.5463 90.6703 94.0082 91.2712 93.6946 91.9927C93.4913 92.4338 93.1769 92.8145 92.7822 93.0977C92.3875 93.3808 91.926 93.5566 91.443 93.6078C90.499 93.7173 89.5882 94.0225 88.769 94.5042C87.9528 95.0991 87.3822 96.0456 86.3706 96.3477C85.3425 96.6577 84.2328 96.4293 83.2204 96.8532C82.3325 97.3068 81.5382 97.924 80.8793 98.6724C79.7073 99.7979 79.1954 99.6747 77.7055 99.7578C75.6551 99.8766 74.9513 101.089 73.9447 101.797C73.4385 102.152 72.8473 102.366 72.2314 102.417C71.2935 102.523 70.2325 102.632 69.6941 103.502C69.6777 103.494 69.6698 103.478 69.6533 103.47C68.651 102.523 68.4462 101.128 68.1276 99.8637C68.119 99.8365 68.101 99.8132 68.0768 99.798C68.0527 99.7827 68.0239 99.7765 67.9956 99.7805C67.9673 99.7844 67.9413 99.7983 67.9223 99.8195C67.9032 99.8408 67.8922 99.8681 67.8914 99.8966C68.0138 102.099 68.9925 104.497 71.4811 104.686C73.606 104.849 76.6287 103.529 78.7837 102.589C82.6054 100.929 89.4899 97.4617 92.7918 94.9037C94.7736 93.3465 96.4918 90.9961 95.8647 88.3542ZM77.8229 89.2191C78.6369 89.1507 79.4548 89.1423 80.27 89.194C80.2902 88.3349 80.5229 87.4942 80.9473 86.7469C81.299 86.144 81.7483 85.6035 82.2768 85.1475C81.7579 84.8955 81.2705 84.5831 80.8249 84.2168C79.9236 84.7068 79.1699 85.4291 78.6421 86.3088C78.1142 87.1884 77.8313 88.1933 77.8229 89.2191Z" fill="#191919"/>
<path d="M70.0292 99.5631C71.8333 99.412 72.7447 98.4047 76.3194 97.6215C78.5632 97.1404 80.8635 96.9199 83.0579 96.2347C85.2055 95.4357 87.2643 94.416 89.2014 93.1919C90.9798 92.1896 93.0274 91.2668 94.3247 89.6265C95.9341 87.5861 95.3034 85.5722 93.7519 85.2135C92.6916 84.96 91.5411 85.3681 90.5459 85.6867C88.2041 86.4392 88.5413 86.3397 88.4575 86.2981C87.7566 85.5972 85.9088 85.802 85.0797 85.7927C84.1581 86.8219 83.6169 88.1358 83.5462 89.5156C84.9337 89.6819 86.3368 89.3744 87.5275 88.6428C88.0902 88.2591 88.9386 87.4186 88.6938 86.6847C89.8851 86.3339 91.0435 85.8764 92.267 85.6402C94.8924 85.139 95.516 87.236 94.1192 89.2056C93.0095 90.747 91.1659 91.6119 89.5508 92.5175C87.7161 93.6558 85.802 94.6607 83.8232 95.5245C81.0719 96.5776 77.9876 96.7201 75.0293 97.4905C72.5486 98.1563 71.0723 99.286 69.3182 99.1371C68.8331 99.0997 68.3675 98.9302 67.9719 98.6468C67.5764 98.3635 67.266 97.9771 67.0745 97.5298C66.7644 96.7402 66.5667 95.9109 66.4874 95.0663C66.365 94.2179 66.0879 92.733 67.3601 92.6836C68.4047 92.6428 69.1629 93.5649 70.118 93.8585C70.5139 93.9753 70.932 93.9963 71.3377 93.9198C71.7434 93.8432 72.125 93.6713 72.4512 93.4182C73.8666 92.2827 73.3576 90.268 75.5756 89.0781C76.1448 89.3609 76.798 89.4249 77.4113 89.2578H77.4356C77.4071 88.3144 77.6048 87.3778 78.012 86.5262C78.4193 85.6747 79.0244 84.933 79.7767 84.3629C79.965 84.2155 80.1769 84.0608 80.3967 83.914C79.7507 83.3159 78.9136 82.9661 78.0341 82.9268C77.4641 82.9605 76.9117 83.1364 76.4272 83.4386C75.9427 83.7407 75.5416 84.1594 75.2606 84.6565C74.6563 85.7268 74.531 87.9985 75.3014 88.8497C73.3612 89.8821 73.523 91.4271 72.6524 92.6514C71.8691 93.7446 70.5804 93.7361 69.5194 93.1082C68.7777 92.6786 68.0267 92.1295 67.121 92.2841C66.865 92.3254 66.6265 92.4398 66.434 92.6136C66.2416 92.7874 66.1035 93.0131 66.0364 93.2635C65.951 93.1634 65.8423 93.0859 65.7198 93.0378C65.5974 92.9897 65.4649 92.9725 65.3342 92.9878C65.2036 93.0031 65.0787 93.0504 64.9706 93.1255C64.8626 93.2005 64.7747 93.3011 64.7147 93.4182C64.5933 93.6118 64.5302 93.8364 64.5331 94.0649C64.536 94.2935 64.6048 94.5164 64.7312 94.7069C64.8966 94.9157 65.1128 95.0786 65.3591 95.1801C65.6632 95.326 65.9288 95.5413 66.1344 95.8087C66.2776 95.9519 66.3693 97.837 67.5456 98.8515C67.8909 99.1302 68.2887 99.3367 68.7153 99.459C69.1419 99.5812 69.5886 99.6166 70.0292 99.5631ZM65.3655 94.6116C65.0727 94.4226 64.8522 93.8528 65.2109 93.5836C65.6025 93.29 65.8144 93.673 65.9447 94.0811C65.9529 94.376 65.9768 94.6702 66.0163 94.9625C65.8037 94.8314 65.551 94.7326 65.3655 94.6116Z" fill="#191919"/>
<path d="M80.6759 89.2274C81.5079 89.299 82.3648 89.4315 83.2211 89.4966C83.2359 88.1418 83.7042 86.8311 84.5513 85.7737C83.9274 85.7177 83.3146 85.573 82.7314 85.3441C82.1206 85.7969 81.619 86.3807 81.2633 87.0527C80.9076 87.7247 80.7069 88.4678 80.6759 89.2274ZM33.3336 40.5226C33.1052 40.5068 32.4121 40.8326 32.3384 40.514C32.2811 40.2692 31.9146 40.3751 31.9632 40.62C31.9984 40.7457 32.0744 40.8562 32.1792 40.934C32.2841 41.0118 32.4119 41.0524 32.5424 41.0495C32.7242 41.04 32.9033 41.0016 33.073 40.9357C33.1961 40.9038 33.325 40.9012 33.4493 40.928C33.5736 40.9549 33.6899 41.0105 33.7889 41.0903C33.8162 41.106 33.8479 41.1122 33.879 41.1081C33.9102 41.1039 33.9392 41.0896 33.9614 41.0674C33.9836 41.0451 33.9979 41.0162 34.0021 40.985C34.0062 40.9538 34 40.9222 33.9844 40.8949C33.9141 40.7848 33.8181 40.6935 33.7048 40.6286C33.5914 40.5638 33.4641 40.5274 33.3336 40.5226ZM35.0389 42.7091C34.9046 42.8102 34.748 42.8775 34.5822 42.9053C34.5368 42.9171 34.498 42.9465 34.4743 42.987C34.4506 43.0275 34.4439 43.0757 34.4558 43.1211C34.4677 43.1665 34.4971 43.2053 34.5376 43.229C34.578 43.2527 34.6263 43.2593 34.6717 43.2475C35.0146 43.158 35.6425 42.8809 35.5852 42.4399C35.493 42.1595 35.3731 41.8889 35.2272 41.6323C35.1623 41.3219 35.075 41.0166 34.9659 40.7188C34.9534 40.6974 34.9348 40.6802 34.9125 40.6695C34.8902 40.6588 34.8652 40.6549 34.8406 40.6584C34.8161 40.662 34.7932 40.6727 34.7749 40.6893C34.7565 40.706 34.7435 40.7277 34.7375 40.7517C34.7081 41.3095 34.8385 41.8641 35.1134 42.3504C35.1778 42.5215 35.2093 42.5616 35.0389 42.7091ZM33.0236 43.085C33.0045 43.0549 32.9763 43.0316 32.9431 43.0186C32.91 43.0056 32.8735 43.0034 32.8391 43.0124C32.8046 43.0214 32.7739 43.0411 32.7513 43.0687C32.7287 43.0962 32.7155 43.1303 32.7136 43.1659C32.6484 43.8596 32.2897 45.3609 33.2197 45.6623C34.0789 45.9401 34.623 44.7316 34.7454 44.0966C34.7465 44.0328 34.7249 43.9707 34.6845 43.9213C34.6442 43.8719 34.5876 43.8383 34.5249 43.8267C34.2337 43.831 33.9457 43.766 33.6847 43.6371C33.4236 43.5081 33.197 43.3188 33.0236 43.085ZM34.3946 44.0801C34.2961 44.4811 34.0902 44.8477 33.7989 45.1404C33.7395 45.1872 33.67 45.2194 33.596 45.2345C33.5219 45.2496 33.4453 45.2471 33.3724 45.2273C33.2995 45.2074 33.2322 45.1708 33.176 45.1203C33.1197 45.0698 33.0761 45.0068 33.0486 44.9364C32.9567 44.4818 32.9511 44.0141 33.0321 43.5575C33.2126 43.7315 33.4262 43.8675 33.6602 43.9573C33.8943 44.0471 34.144 44.0888 34.3946 44.0801ZM54.1782 54.4835C53.9524 55.0655 53.8593 55.6905 53.9059 56.3131C53.9525 56.9356 54.1375 57.5399 54.4474 58.0818C54.4655 58.1099 54.4929 58.1308 54.5248 58.1409C54.5567 58.1509 54.5911 58.1495 54.6221 58.1368C54.653 58.1242 54.6786 58.1011 54.6943 58.0715C54.71 58.042 54.7148 58.0079 54.708 57.9751C54.4496 56.7673 54.0715 56.574 54.4717 54.5737C54.4837 54.5347 54.4797 54.4927 54.4607 54.4567C54.4416 54.4207 54.409 54.3938 54.3701 54.3818C54.3312 54.3698 54.2891 54.3738 54.2531 54.3929C54.2171 54.412 54.1902 54.4445 54.1782 54.4835ZM34.9244 91.4139C33.0815 91.1125 30.4318 91.6222 28.6513 92.1971C28.007 84.2681 27.7084 76.1758 29.6221 68.4565C29.867 67.4778 30.1848 66.507 30.4054 65.5211C30.4376 65.3658 30.2092 65.2441 30.1362 65.4066C28.9771 67.994 28.2282 72.7743 27.9497 75.6045C27.5106 81.2249 27.6115 86.8745 28.2511 92.4756C28.2676 92.5981 28.3821 92.7284 28.5203 92.6797C31.4163 91.6373 33.2834 91.842 34.8757 91.7575C35.0719 91.7482 35.1363 91.4483 34.9244 91.4139ZM19.5953 80.6039C18.9761 80.3669 18.6818 79.8371 18.2351 79.3868C18.2023 79.3547 18.1591 79.3355 18.1134 79.3326C18.0677 79.3297 18.0224 79.3433 17.9859 79.371C17.9493 79.3987 17.924 79.4386 17.9144 79.4834C17.9048 79.5282 17.9116 79.575 17.9336 79.6152C18.1115 79.9801 18.3673 80.3014 18.683 80.5565C18.9987 80.8116 19.3666 80.9942 19.7607 81.0914C20.0609 81.1646 20.3765 81.1407 20.6622 81.0234C20.948 80.9062 21.1893 80.7014 21.3516 80.4385C22.3419 80.8594 23.3552 81.2244 24.3864 81.5318C24.8024 81.6628 25.3408 81.8339 25.6751 81.4423C25.7297 81.3746 25.7696 81.2964 25.7923 81.2126C25.8151 81.1287 25.8201 81.041 25.8071 80.9551C25.7941 80.8692 25.7634 80.7869 25.7169 80.7135C25.6704 80.6401 25.6091 80.5772 25.537 80.5287C24.7781 79.8536 24.1509 79.9323 20.8619 76.8574C20.8516 76.8472 20.8395 76.8392 20.8262 76.8337C20.8129 76.8282 20.7987 76.8254 20.7843 76.8254C20.7699 76.8255 20.7556 76.8283 20.7424 76.8339C20.7291 76.8394 20.717 76.8475 20.7068 76.8577C20.6967 76.8679 20.6886 76.88 20.6832 76.8933C20.6777 76.9067 20.6749 76.9209 20.6749 76.9353C20.675 76.9497 20.6778 76.9639 20.6834 76.9772C20.6889 76.9905 20.697 77.0026 20.7072 77.0127C21.8352 78.3539 23.1634 79.5131 24.6449 80.4492C24.7108 80.4944 24.9484 80.6089 25.126 80.7227C25.1556 80.7418 25.181 80.7667 25.2006 80.796C25.2202 80.8253 25.2335 80.8583 25.2398 80.893C25.246 80.9276 25.245 80.9632 25.2369 80.9975C25.2288 81.0317 25.2137 81.064 25.1926 81.0922C24.9778 81.3721 24.6828 81.1996 24.405 81.1265C20.7917 80.0047 20.6106 79.5221 19.5102 78.8498C19.3469 78.7525 19.2001 78.9723 19.3147 79.1033C19.8033 79.6212 20.3913 80.0352 21.0437 80.3204C20.8557 80.5029 20.6188 80.6269 20.3616 80.6772C20.1045 80.7276 19.8383 80.7021 19.5953 80.6039Z" fill="#191919"/>
<path d="M43.0589 61.2196C42.2334 56.9075 40.1135 55.9453 35.9281 56.4314C31.2652 56.9712 26.845 59.2429 23.2073 62.3394C22.76 62.3552 22.3155 62.4149 21.8799 62.5176C19.4121 63.0396 16.2956 64.2359 14.611 66.0973C14.3661 65.452 14.1131 64.8158 13.8521 64.1886C15.677 62.4876 16.2791 62.7195 17.0502 62.0587C17.0708 62.0373 17.0848 62.0103 17.0904 61.981C17.0961 61.9518 17.0931 61.9216 17.0819 61.894C17.0707 61.8664 17.0517 61.8427 17.0272 61.8256C17.0028 61.8086 16.974 61.7991 16.9442 61.7981C16.2825 61.9417 15.6628 62.2357 15.1329 62.6572C14.6149 62.9923 14.1312 63.3777 13.6888 63.8078C13.0932 62.3959 12.4488 61.0089 11.7558 59.6467C11.6326 59.4104 11.2825 59.6224 11.3978 59.8615C13.2546 63.5081 14.7493 67.328 15.8603 71.2664C15.9876 71.5986 16.0806 71.9428 16.1381 72.2938C16.1703 72.8494 15.6484 73.0534 15.2732 73.3384C14.2403 74.1389 13.3281 75.0841 12.5648 76.1449C9.99886 73.3126 6.88523 69.2418 5.26935 65.7723C4.28951 63.8388 3.89537 61.6614 4.1353 59.5071C4.82332 55.0439 9.37671 52.992 13.4118 50.4862C13.4448 50.4644 13.4683 50.4308 13.4774 50.3922C13.4865 50.3536 13.4805 50.313 13.4607 50.2787C13.4408 50.2444 13.4086 50.219 13.3707 50.2077C13.3327 50.1963 13.2918 50.1999 13.2564 50.2177C11.1565 51.2273 9.16633 52.4509 7.31766 53.8691C5.67112 55.0063 4.45533 56.6647 3.8661 58.5771C2.7163 62.9314 5.23713 67.1591 7.59473 70.6178C9.0176 72.6816 10.5761 74.6486 12.2598 76.5057C12.7627 76.9858 13.1616 77.564 13.4318 78.2046C14.0046 79.3423 14.9074 81.6569 16.186 82.0321C16.3388 82.083 16.5018 82.0954 16.6606 82.0682C16.8193 82.0409 16.9689 81.9749 17.096 81.876C17.2356 81.7386 17.3395 81.5693 17.3988 81.3827C17.7033 81.6025 18.0731 81.7129 18.4481 81.696C18.8232 81.6791 19.1816 81.5359 19.465 81.2896C19.4885 81.2664 19.5028 81.2354 19.5051 81.2025C19.5074 81.1695 19.4977 81.1369 19.4777 81.1106C19.4577 81.0843 19.4289 81.0662 19.3965 81.0596C19.3641 81.053 19.3305 81.0584 19.3018 81.0748C19.0552 81.2187 18.7735 81.2911 18.4881 81.2839C18.2027 81.2767 17.9249 81.1902 17.6859 81.034C17.2481 80.7351 16.8601 80.369 16.5361 79.9494C16.4216 79.8005 16.2497 80.0468 16.3077 80.1778C16.4969 80.5804 16.7857 80.9281 17.1468 81.188C17.179 81.2123 17.1411 81.2596 17.1074 81.3154C16.6313 82.1151 15.7285 81.2746 15.3613 80.8178C14.4227 79.6544 13.9408 77.8037 12.8734 76.4506C13.329 75.7872 13.8481 75.1698 14.4234 74.607C15.0348 74.0135 16.2132 73.1916 16.2583 73.1036C17.4511 74.607 20.5755 73.4851 21.6437 75.1354C21.8437 75.4497 21.9484 75.8153 21.9451 76.1878C21.9451 76.563 21.7489 76.8651 21.7246 77.2238C21.7248 77.2515 21.7323 77.2786 21.7461 77.3025C21.76 77.3264 21.7799 77.3463 21.8038 77.3602C21.8277 77.3741 21.8548 77.3816 21.8824 77.3819C21.9101 77.3823 21.9373 77.3754 21.9615 77.362C22.467 77.0119 22.4627 76.1227 22.3195 75.5922C22.2289 75.2502 22.0612 74.9335 21.8294 74.6662C21.5977 74.3989 21.3078 74.1882 20.9821 74.05C20.2787 73.7884 19.5372 73.6433 18.787 73.6205C17.9465 73.6271 17.1309 73.3348 16.486 72.7957C16.5869 72.42 16.5617 72.0217 16.4144 71.6616C15.9332 69.8915 15.3722 68.144 14.7334 66.4245C15.329 65.967 15.8918 65.4781 16.5232 65.07C18.4289 63.9065 20.5394 63.1181 22.7412 62.7474C20.6431 64.607 18.812 66.7477 17.3 69.1086C17.2105 69.2468 17.4225 69.4107 17.5291 69.2797C19.6017 66.4811 21.9976 63.9372 24.6671 61.7007C27.4467 59.4784 30.6948 57.9163 34.1662 57.1323C35.9007 56.6607 37.7204 56.5938 39.4849 56.9369C41.2798 57.4266 42.1038 59.0009 42.5033 60.6898C43.4255 64.5244 42.7403 68.6196 41.9979 72.4213C41.1165 76.6691 39.95 80.8528 38.5062 84.9438C38.4246 85.1722 38.7754 85.2617 38.8642 85.0419C40.3644 81.1966 41.5034 77.2201 42.2664 73.1637C43.0661 69.2883 43.8157 65.1695 43.0589 61.2196ZM73.3583 88.7211C71.7805 89.2358 70.3077 90.0289 69.0097 91.063C64.1878 86.2059 60.3777 80.4403 57.8002 74.1001C57.6942 73.8467 57.2782 73.9527 57.3842 74.214C60.0075 80.6854 63.8961 86.5682 68.8221 91.5176C68.8563 91.5532 68.9018 91.5759 68.9508 91.5819C68.9999 91.5879 69.0495 91.5768 69.0913 91.5505C70.4629 90.5593 71.9209 89.6936 73.4478 88.9638C73.4749 88.9485 73.4957 88.9241 73.5064 88.8949C73.5171 88.8657 73.5171 88.8336 73.5063 88.8044C73.4956 88.7752 73.4748 88.7508 73.4476 88.7355C73.4205 88.7202 73.3888 88.7151 73.3583 88.7211ZM57.5474 72.2824C54.1353 73.7923 50.5756 74.944 46.9257 75.7189C44.586 76.2057 44.067 76.1413 43.3682 76.4449C43.3479 76.4572 43.3317 76.4753 43.3216 76.4969C43.3115 76.5185 43.308 76.5425 43.3115 76.566C43.315 76.5896 43.3254 76.6115 43.3413 76.6292C43.3573 76.6469 43.3781 76.6595 43.4011 76.6654C43.9722 76.7072 44.5464 76.663 45.1044 76.5343C48.8488 75.9266 52.5113 74.892 56.0203 73.4508C56.608 73.2403 57.1782 72.9839 57.7257 72.684C57.7689 72.6545 57.8003 72.6109 57.8146 72.5606C57.8289 72.5104 57.8251 72.4567 57.8039 72.4089C57.7827 72.3611 57.7454 72.3223 57.6986 72.2992C57.6517 72.2761 57.5982 72.2701 57.5474 72.2824Z" fill="#191919"/>
<path d="M26.2687 82.5132C25.2026 82.627 24.7279 83.2227 22.2551 83.2227C20.8482 83.1787 19.4586 82.9002 18.1434 82.3987C18.1084 82.3909 18.0717 82.3957 18.0398 82.4123C18.008 82.4289 17.983 82.4562 17.9693 82.4894C17.9557 82.5226 17.9541 82.5595 17.965 82.5938C17.9759 82.628 17.9985 82.6573 18.0289 82.6764C20.3757 84.2515 25.2105 83.7625 26.3997 82.8146C26.422 82.7886 26.4366 82.7568 26.4417 82.7229C26.4469 82.689 26.4423 82.6543 26.4287 82.6228C26.415 82.5914 26.3927 82.5644 26.3644 82.545C26.3361 82.5256 26.3029 82.5146 26.2687 82.5132Z" fill="#191919"/>
<path d="M35.1778 39.9191C35.2486 39.9191 35.3178 39.8981 35.3767 39.8587C35.4356 39.8194 35.4815 39.7635 35.5085 39.6981C35.5356 39.6327 35.5427 39.5607 35.5289 39.4913C35.5151 39.4218 35.481 39.358 35.4309 39.308C35.3809 39.2579 35.3171 39.2238 35.2477 39.21C35.1782 39.1962 35.1062 39.2033 35.0408 39.2304C34.9754 39.2575 34.9195 39.3033 34.8802 39.3622C34.8409 39.4211 34.8199 39.4903 34.8199 39.5611C34.821 39.6557 34.859 39.7461 34.9259 39.813C34.9928 39.8799 35.0832 39.918 35.1778 39.9191ZM35.9768 95.1339C36.3785 96.6467 38.5793 97.1486 39.893 97.3369C40.723 97.4731 41.5698 97.4702 42.3988 97.3283C42.9866 97.2223 44.2431 96.9531 44.4385 96.2923C44.4483 96.256 44.4495 96.2179 44.4423 96.1809C44.435 96.144 44.4193 96.1093 44.3965 96.0793C44.3737 96.0494 44.3443 96.0251 44.3107 96.0083C44.277 95.9914 44.2399 95.9826 44.2023 95.9823C43.8837 95.9415 43.6388 96.1699 43.3618 96.3009C41.6055 96.9331 39.6764 96.8864 37.9528 96.1699C37.3107 95.891 36.7275 95.4922 36.2346 94.995C36.2121 94.9696 36.1817 94.9526 36.1483 94.9466C36.1149 94.9407 36.0805 94.9462 36.0506 94.9623C36.0208 94.9784 35.9972 95.0041 35.9838 95.0353C35.9704 95.0664 35.968 95.1012 35.9768 95.1339ZM75.1524 93.445C75.9851 94.8161 78.2854 94.6199 79.6235 94.4159C80.4333 94.3034 81.2189 94.0581 81.9489 93.6899C82.4543 93.4207 83.6127 92.7842 83.5805 92.1234C83.5796 92.086 83.5703 92.0493 83.5532 92.016C83.5362 91.9827 83.5119 91.9536 83.4822 91.9309C83.4524 91.9082 83.418 91.8925 83.3813 91.885C83.3447 91.8774 83.3068 91.8781 83.2705 91.8871C82.9684 91.9279 82.8051 92.205 82.5846 92.4012C81.3224 93.5467 79.2197 93.9763 77.5265 93.8775C76.7644 93.8177 76.0229 93.601 75.3486 93.241C75.2262 93.1844 75.063 93.3147 75.1524 93.445Z" fill="#EF233C"/>
<path d="M130.115 71.9808C129.87 68.2386 129.862 64.4999 129.943 60.7634C129.941 60.699 129.921 60.6365 129.884 60.5835C129.847 60.5306 129.796 60.4895 129.736 60.4653C129.676 60.441 129.611 60.4347 129.548 60.4471C129.484 60.4595 129.426 60.4901 129.38 60.535C126.257 63.031 123.305 65.7337 120.545 68.6252C120.492 68.6831 120.461 68.7578 120.457 68.8362C120.454 68.9146 120.478 68.9917 120.526 69.054C120.574 69.1163 120.642 69.1599 120.718 69.177C120.795 69.1942 120.875 69.1838 120.945 69.1478C122.015 69.6197 123.098 70.063 124.192 70.4773C120.688 77.6124 116.487 85.3517 112.052 92.635C110.34 90.3018 109.805 89.6638 109.205 88.9393C108.834 88.507 108.439 88.0957 108.022 87.7072C108.055 87.6018 108.055 87.4889 108.023 87.3835C107.99 87.278 107.926 87.185 107.839 87.1168C107.752 87.0486 107.647 87.0085 107.537 87.0018C107.426 86.9951 107.317 87.0221 107.222 87.0793C105.7 87.9893 101.663 90.8301 92.5871 96.5104C87.7187 99.5617 72.4934 108.487 69.9153 110.159C69.8237 109.855 67.7775 104.244 66.4967 101.153C66.1929 100.28 65.8146 99.4352 65.3662 98.6274C65.1794 98.3411 64.777 97.9287 64.351 98.0046C63.048 98.2365 10.9718 114.07 10.4406 114.246C9.49717 114.529 8.57783 114.886 7.69137 115.315C7.62931 115.353 7.58304 115.412 7.56096 115.482C7.53889 115.551 7.54246 115.626 7.57104 115.694C7.59962 115.761 7.65131 115.815 7.71673 115.848C7.78216 115.88 7.85698 115.888 7.92763 115.869C8.27272 115.79 8.3751 115.782 8.8333 115.698C9.70603 115.524 64.0432 99.2496 64.472 99.0885C64.7117 99.8987 65.0062 100.692 65.3533 101.462C65.7693 102.536 68.1677 108.927 68.3553 109.457C68.6667 110.324 68.8521 111.539 69.6855 111.309C70.9226 111.433 101.596 92.5319 107.401 88.3687C108.618 90.1915 108.374 89.7197 111.57 94.1442C111.628 94.2397 111.71 94.3186 111.808 94.3733C111.906 94.428 112.016 94.4567 112.128 94.4567C112.24 94.4567 112.351 94.428 112.448 94.3733C112.546 94.3186 112.628 94.2397 112.687 94.1442C117.61 86.1128 121.555 78.7872 125.431 70.9477C126.834 71.4541 128.259 71.9001 129.706 72.2858C129.753 72.2986 129.803 72.3005 129.851 72.2913C129.899 72.282 129.945 72.262 129.984 72.2326C130.024 72.2033 130.056 72.1653 130.078 72.1217C130.101 72.0781 130.113 72.0299 130.115 71.9808Z" fill="#EF233C"/>
<path d="M105.216 76.4433C104.788 76.2446 104.316 76.1602 103.845 76.1985C103.886 75.7417 103.983 75.3014 104.049 74.8439C104.074 74.6649 103.821 74.5017 103.723 74.7057C103.498 75.1791 103.368 75.6917 103.339 76.215C102.875 76.2165 102.417 76.3253 102.002 76.5328C101.973 76.551 101.95 76.578 101.938 76.6099C101.926 76.6417 101.924 76.6767 101.933 76.7097C101.942 76.7427 101.961 76.7718 101.988 76.7928C102.015 76.8138 102.048 76.8256 102.083 76.8264C102.495 76.8234 102.906 76.7964 103.315 76.7455C103.261 77.2718 103.345 77.8032 103.56 78.2869C103.582 78.3239 103.616 78.3527 103.657 78.3689C103.697 78.3851 103.741 78.3879 103.784 78.3769C103.826 78.366 103.863 78.3417 103.89 78.3079C103.917 78.274 103.933 78.2322 103.935 78.1888C103.938 77.7031 103.905 77.2177 103.837 76.7369C104.283 76.7966 104.734 76.8158 105.183 76.7942C105.33 76.7612 105.339 76.5157 105.216 76.4433ZM97.1963 53.9756C96.7441 53.8396 96.2582 53.8685 95.8253 54.0573C95.5735 53.4997 95.1507 53.0368 94.6182 52.7356C94.5812 52.7154 94.5381 52.7091 94.4969 52.7177C94.4556 52.7263 94.4187 52.7494 94.3928 52.7827C94.367 52.8161 94.3539 52.8575 94.3558 52.8997C94.3577 52.9418 94.3746 52.9819 94.4034 53.0127C94.7399 53.3919 95.0403 53.8018 95.3005 54.237C94.9015 54.367 94.5364 54.5842 94.2316 54.8727C94.2067 54.8978 94.1908 54.9304 94.1862 54.9654C94.1817 55.0005 94.1888 55.036 94.2065 55.0666C94.2241 55.0972 94.2514 55.1212 94.284 55.1348C94.3166 55.1484 94.3528 55.1509 94.3869 55.1419C94.7707 55.0202 95.1294 54.8319 95.4967 54.6851C95.5842 54.928 95.6442 55.1799 95.6756 55.4362C95.6794 55.6776 95.7207 55.917 95.7981 56.1457C95.8172 56.1772 95.8442 56.2033 95.8763 56.2214C95.9085 56.2395 95.9448 56.2491 95.9817 56.2491C96.0186 56.2491 96.0549 56.2395 96.0871 56.2214C96.1192 56.2033 96.1462 56.1772 96.1653 56.1457C96.3342 55.6072 96.2843 55.0239 96.0265 54.5219C96.4307 54.4783 96.825 54.3682 97.1934 54.1962C97.2693 54.1389 97.2858 54.0086 97.1963 53.9756ZM122.911 45.6464C123.256 45.143 123.433 44.5433 123.416 43.9331C123.415 43.8918 123.399 43.8521 123.372 43.8212C123.344 43.7903 123.307 43.7701 123.266 43.7642C123.225 43.7582 123.183 43.767 123.148 43.7889C123.113 43.8108 123.087 43.8444 123.074 43.8837C122.922 44.3686 122.725 44.8383 122.487 45.287C122.172 45.0107 121.798 44.81 121.393 44.6999C121.25 44.667 121.107 44.8545 121.238 44.9691C121.532 45.2383 121.883 45.4423 122.209 45.685C121.657 46.353 121.333 46.3595 121.116 46.6967C121.097 46.7291 121.086 46.7661 121.086 46.8039C121.086 46.8416 121.096 46.8786 121.116 46.9111C121.135 46.9436 121.162 46.9704 121.195 46.9886C121.228 47.0067 121.266 47.0157 121.304 47.0145C121.577 46.9504 121.835 46.8321 122.062 46.6667C122.289 46.5013 122.48 46.2922 122.625 46.0516C122.869 46.3777 123.167 46.6594 123.506 46.8842C123.578 46.9165 123.702 46.8756 123.686 46.7783C123.577 46.3179 123.301 45.9145 122.911 45.6464ZM121.695 30.129C120.484 28.5497 118.571 27.1436 116.49 27.3226C116.461 27.3232 116.433 27.3323 116.409 27.3487C116.385 27.3651 116.366 27.3881 116.355 27.4149C116.344 27.4417 116.341 27.4712 116.346 27.4998C116.351 27.5284 116.364 27.5548 116.384 27.576C117.275 28.5665 117.772 29.8494 117.78 31.1815C117.561 31.023 117.312 30.9108 117.048 30.852C116.784 30.7931 116.511 30.7888 116.245 30.8393C116.107 30.8636 116.123 31.0426 116.213 31.1085C116.542 31.4533 116.78 31.8749 116.905 32.335C117.03 32.7951 117.039 33.2791 116.929 33.7431C116.791 34.6244 116.472 35.3991 116.709 36.2969C116.893 37.0334 117.339 37.6776 117.964 38.1086C118.589 38.5396 119.349 38.7279 120.103 38.638C123.089 38.2672 124.412 33.6708 121.695 30.129ZM120.414 36.2861C120.258 36.3595 120.086 36.3925 119.914 36.3821C119.742 36.3717 119.575 36.3181 119.428 36.2264C119.282 36.1347 119.162 36.0077 119.077 35.8572C118.993 35.7066 118.948 35.5373 118.946 35.3647C118.852 35.0606 118.871 34.7328 119 34.4419C119.129 34.1509 119.359 33.9165 119.648 33.7818C119.973 33.7019 120.317 33.7496 120.609 33.9152C120.9 34.0808 121.117 34.3517 121.215 34.6723C121.313 34.9929 121.285 35.3389 121.136 35.6392C120.987 35.9396 120.729 36.1716 120.414 36.2876V36.2861ZM114.551 51.7319C112.848 48.949 110.015 46.2986 106.597 46.1518C106.571 46.1523 106.546 46.1593 106.524 46.1722C106.501 46.1852 106.483 46.2036 106.47 46.2257C106.457 46.2478 106.45 46.2729 106.449 46.2985C106.448 46.3242 106.454 46.3496 106.466 46.3723C107.832 48.3838 108.38 50.8398 108 53.2411C107.674 52.8774 107.272 52.5906 106.822 52.4015C106.372 52.2124 105.885 52.1258 105.397 52.1478C105.368 52.1488 105.34 52.1581 105.317 52.1745C105.293 52.1909 105.274 52.2139 105.263 52.2406C105.252 52.2672 105.249 52.2966 105.254 52.3251C105.259 52.3536 105.272 52.38 105.291 52.4013L105.316 52.4256C105.317 52.4457 105.323 52.4652 105.332 52.4829C105.79 53.1343 106.088 53.8842 106.203 54.6719C106.318 55.4597 106.246 56.2635 105.993 57.0184C105.593 58.5119 104.769 59.8106 104.924 61.4157C105.038 62.7556 105.655 64.0025 106.652 64.9058C107.648 65.809 108.949 66.3015 110.294 66.2841C115.428 66.2054 118.693 58.5025 114.551 51.7319ZM110.541 63.1461C109.35 63.5184 108.228 63.0166 108.056 60.9683C107.931 59.4698 109.027 58.1431 110.432 58.534C110.895 58.6825 111.308 58.9576 111.623 59.3284C111.937 59.6991 112.142 60.1506 112.214 60.6318C112.272 61.1802 112.137 61.7318 111.832 62.191C111.526 62.6503 111.07 62.9881 110.541 63.1461ZM139.505 44.6097C139.147 41.9671 137.913 39.0461 135.418 37.7817C135.392 37.768 135.362 37.7621 135.333 37.7646C135.303 37.7672 135.275 37.7782 135.252 37.7962C135.229 37.8143 135.211 37.8386 135.202 37.8664C135.192 37.8942 135.19 37.9242 135.197 37.9529C135.53 39.9129 135.11 41.9263 134.022 43.5902C133.893 43.2076 133.681 42.858 133.402 42.5662C133.123 42.2744 132.783 42.0474 132.407 41.9013C132.387 41.8955 132.367 41.8941 132.346 41.8971C132.326 41.9 132.307 41.9073 132.289 41.9185C132.272 41.9296 132.257 41.9443 132.246 41.9616C132.235 41.9789 132.228 41.9984 132.225 42.0187C132.202 42.1741 132.92 43.8873 130.996 46.028C130.122 46.9988 129.152 47.7169 128.784 49.022C128.477 50.076 128.572 51.2064 129.05 52.1948C129.527 53.1831 130.354 53.9594 131.371 54.3737C135.284 55.9774 140.407 51.2343 139.505 44.6097ZM134.822 51.2615C134.093 53.637 130.168 52.5409 131.624 50.1117C131.788 49.6664 132.112 49.2982 132.533 49.0793C132.954 48.8604 133.441 48.8065 133.9 48.9283C134.304 49.1464 134.617 49.5 134.786 49.9268C134.955 50.3536 134.967 50.8263 134.822 51.2615Z" fill="#EF233C"/>
<path d="M38.2127 35.1628C38.0923 34.7125 37.8498 34.3044 37.5119 33.9833C37.1741 33.6623 36.7541 33.4409 36.2983 33.3436C36.0047 33.3192 35.7678 33.4252 35.4821 33.3271C35.2172 33.2024 34.9635 33.0551 34.7239 32.8868C33.4639 32.2067 31.5802 32.1988 29.7309 33.4596C27.5366 34.963 26.255 37.4244 24.2726 39.1706C19.9705 42.9651 13.6194 44.5474 10.8036 48.4542C10.7848 48.4866 10.7737 48.5228 10.7712 48.5601C10.7686 48.5974 10.7747 48.6348 10.7889 48.6693C10.8031 48.7039 10.825 48.7348 10.853 48.7596C10.881 48.7843 10.9143 48.8024 10.9503 48.8122C13.1046 49.2038 14.6138 50.9901 15.4787 52.8995C16.5469 55.2621 16.7595 57.9169 17.6401 60.3453C17.651 60.3798 17.6695 60.4113 17.6941 60.4377C17.7187 60.4642 17.7489 60.4848 17.7825 60.4981C17.8161 60.5114 17.8522 60.517 17.8883 60.5146C17.9243 60.5122 17.9594 60.5018 17.9909 60.4842C23.8373 57.5553 28.5153 52.8859 29.2004 46.4117C29.4209 44.3354 29.315 41.9728 30.7669 40.309C32.0964 38.7833 34.1691 38.2127 35.5802 36.7851C35.9961 37.63 36.611 38.3612 37.3722 38.9158C37.3393 39.5522 37.307 40.188 37.2576 40.8166C36.997 40.8166 36.1773 40.2581 35.5938 41.0614C35.5286 41.1509 35.6589 41.2762 35.7484 41.2161C36.4565 40.7543 36.6677 41.1201 37.2254 41.1996C37.1843 41.7179 37.1272 42.2348 37.0543 42.7496C36.8911 43.8429 36.6627 45.075 35.7076 45.7687C35.2702 46.0607 34.7713 46.2478 34.2498 46.3156C33.7283 46.3834 33.1982 46.33 32.7007 46.1597C31.5258 45.7931 30.7748 44.969 29.8777 44.1937C29.7223 44.0634 29.4374 44.2431 29.5756 44.4307C30.0603 45.083 30.6764 45.6266 31.3841 46.0262C32.0918 46.4259 32.8754 46.6728 33.6844 46.751C33.6411 46.9574 33.6221 47.1681 33.6278 47.3789C33.611 47.5175 33.6218 47.658 33.6595 47.7925C33.6973 47.9269 33.7612 48.0525 33.8476 48.1621C33.8678 48.1815 33.8927 48.1952 33.9198 48.2022C33.9468 48.2091 33.9753 48.209 34.0023 48.2018C34.0293 48.1946 34.054 48.1806 34.0741 48.1611C34.0941 48.1417 34.1088 48.1173 34.1168 48.0905C34.1565 47.8537 34.1426 47.611 34.076 47.3803C34.0602 47.1656 34.0846 46.9644 34.0846 46.7525C34.6586 46.7308 35.2174 46.5621 35.7076 46.2627C36.1775 45.9255 36.5688 45.4906 36.8548 44.9879C37.1408 44.4852 37.3146 43.9265 37.3643 43.3503C37.6301 41.9556 37.7262 40.534 37.6507 39.1162C37.6672 39.1327 37.6915 39.1406 37.708 39.157C37.739 39.1741 37.7735 39.1841 37.8088 39.1862C37.8442 39.1883 37.8796 39.1825 37.9125 39.1692C37.9453 39.1559 37.9748 39.1354 37.9987 39.1093C38.0227 39.0831 38.0405 39.052 38.0509 39.0181C38.5618 37.7932 38.6192 36.4262 38.2127 35.1628ZM32.8202 33.6128C32.269 33.7011 31.7314 33.8602 31.2208 34.086C30.6989 34.3874 30.4619 34.8771 30.0216 35.2444C29.9071 35.3339 29.6873 35.2852 29.7037 35.1141C29.8097 33.955 31.7678 32.8868 32.8202 33.3028C32.8536 33.3128 32.8828 33.3332 32.9036 33.3612C32.9244 33.3891 32.9356 33.423 32.9356 33.4578C32.9356 33.4926 32.9244 33.5265 32.9036 33.5544C32.8828 33.5823 32.8536 33.6028 32.8202 33.6128ZM53.9742 58.9521C53.909 58.96 53.8353 58.96 53.7701 58.9686C50.6994 59.2621 46.7052 60.9066 43.9617 62.3135C43.8185 62.385 43.9209 62.6478 44.0763 62.5826C47.094 61.3999 50.9915 59.5041 54.2333 59.4089C54.142 59.2595 54.0556 59.1071 53.9742 58.9521ZM74.8832 84.4869C74.1673 82.3126 73.374 80.1469 72.5206 78.0176C72.3911 78.106 72.245 78.1672 72.0911 78.1973C72.9502 80.3101 73.7148 82.4558 74.4487 84.6093C74.541 84.8871 74.9749 84.7675 74.8832 84.4869ZM71.0816 73.8895C71.069 73.8692 71.0502 73.8534 71.0279 73.8448C71.0056 73.8361 70.981 73.8349 70.958 73.8413C70.935 73.8478 70.9147 73.8616 70.9001 73.8806C70.8856 73.8996 70.8777 73.9229 70.8776 73.9468C70.894 74.4931 71.0923 75.0565 71.1639 75.6028C71.3329 77.0113 71.3028 78.4367 71.0744 79.8368C71.062 80.1184 70.9887 80.3939 70.8596 80.6444C70.4394 81.1742 70.2726 80.2149 70.1494 79.5025C70.0111 77.8401 69.7106 76.1951 69.2524 74.5911C69.2409 74.56 69.2181 74.5344 69.1885 74.5194C69.1589 74.5043 69.1248 74.501 69.0929 74.51C69.061 74.5191 69.0336 74.5398 69.0164 74.5681C68.9991 74.5964 68.9931 74.6302 68.9996 74.6627C69.0669 75.0143 69.1428 75.3665 69.203 75.718C67.7102 75.9185 67.169 74.7157 67.3351 73.2022C67.4575 72.0846 67.8405 70.9585 67.3351 69.8738C67.2778 69.7592 67.0902 69.8409 67.1203 69.9633C67.5771 71.4159 66.7623 72.8349 66.9893 74.3033C67.0512 74.8545 67.3195 75.3617 67.7403 75.723C67.951 75.8928 68.1979 76.0119 68.4619 76.0711C68.726 76.1303 69.0001 76.1281 69.2631 76.0646C69.4399 77.0218 69.606 77.9732 69.7141 78.9541C69.7714 79.4595 69.8695 81.5236 70.8239 81.1241C71.305 80.9279 71.325 80.265 71.3787 79.8354C71.5835 78.4765 71.5999 77.0958 71.4274 75.7323C71.4165 75.103 71.2996 74.48 71.0816 73.8895Z" fill="#191919"/>
<path d="M72.5342 73.2619C72.5142 73.2444 72.4896 73.2328 72.4633 73.2285C72.437 73.2242 72.41 73.2273 72.3854 73.2375C72.3607 73.2477 72.3394 73.2646 72.3239 73.2862C72.3083 73.3078 72.2991 73.3334 72.2973 73.36C72.3486 73.708 72.4362 74.0497 72.5586 74.3795C72.647 74.7654 72.6988 75.1587 72.7132 75.5544C72.7438 75.9253 72.6551 76.2963 72.46 76.6133C72.2648 76.9302 71.9735 77.1765 71.6286 77.3163C71.6065 77.3302 71.5893 77.3507 71.5796 77.375C71.5699 77.3992 71.568 77.4259 71.5744 77.4513C71.5808 77.4766 71.595 77.4993 71.615 77.516C71.635 77.5328 71.6598 77.5428 71.6859 77.5447C72.0474 77.4824 72.3786 77.3036 72.629 77.0355C72.8793 76.7674 73.0352 76.4247 73.0726 76.0598C73.1227 75.561 73.0951 75.0575 72.991 74.5671C72.9578 74.0991 72.8001 73.6485 72.5342 73.2619ZM73.7249 72.6011C73.7073 72.5832 73.6848 72.571 73.6603 72.566C73.6358 72.561 73.6103 72.5635 73.5872 72.5731C73.564 72.5827 73.5443 72.5991 73.5306 72.62C73.5169 72.641 73.5097 72.6655 73.5101 72.6906C73.4893 73.0486 73.8208 73.4488 73.9998 74.396C74.1222 75.0324 74.1136 76.125 73.2896 76.2803C73.1593 76.3047 73.1922 76.5087 73.3225 76.5087C74.0649 76.5173 74.3506 75.6682 74.3749 75.0568C74.3814 74.6177 74.3208 74.1803 74.1952 73.7595C74.1489 73.3372 73.986 72.9361 73.7249 72.6011Z" fill="#191919"/>
<path d="M73.7492 70.2753C72.7769 69.1019 71.3264 68.4561 70.4702 67.1588C70.3986 67.0529 70.1924 67.118 70.2497 67.2491C70.7881 68.5456 72.134 69.1907 73.0884 70.1372C73.6498 70.7002 74.0759 71.3834 74.3347 72.1353C74.5934 72.8871 74.6779 73.6879 74.5818 74.4772C74.5575 74.7221 74.9326 74.7135 74.9649 74.4772C75.0592 73.7309 75 72.9733 74.791 72.2507C74.5819 71.5282 74.2274 70.8559 73.7492 70.2753Z" fill="#191919"/>
<path d="M70.5432 66.6698C67.6286 61.1263 62.8826 54.7136 58.1753 51.1339C54.2167 48.1568 49.5311 46.2974 44.6082 45.75C37.7237 44.845 37.234 47.2699 34.207 48.3603C33.4517 48.6326 32.6361 48.6918 31.8494 48.5314C31.4699 48.4942 31.1018 48.3812 30.7668 48.1991C30.4318 48.0169 30.1368 47.7694 29.8992 47.4711C29.8733 47.4312 29.8329 47.4028 29.7865 47.3918C29.7402 47.3809 29.6914 47.3883 29.6503 47.4126C29.6093 47.4368 29.5792 47.4759 29.5664 47.5218C29.5535 47.5676 29.5589 47.6167 29.5813 47.6587C30.1197 48.6381 31.4428 48.9725 32.4773 49.0376C35.059 49.1987 36.8531 46.9678 39.0446 46.317C41.5046 45.586 45.007 46.1495 47.4885 46.675C50.6845 47.3652 53.7263 48.6374 56.4621 50.428C61.818 53.9361 67.01 60.8857 70.065 66.6541C69.1716 67.0644 68.3935 67.6891 67.7997 68.4726C67.7854 68.4924 67.7743 68.5144 67.7668 68.5377C67.5055 68.8241 67.2528 69.1169 67.0079 69.4104C63.6064 66.9149 60.38 64.1891 57.3513 61.2523C56.4433 60.2829 55.6059 59.2498 54.8455 58.1608C54.7803 58.0792 54.6257 58.1687 54.6658 58.2668C55.8829 61.3153 64.3081 67.8533 66.9607 69.8107C66.9939 69.8317 67.0333 69.8407 67.0723 69.8363C67.1114 69.8319 67.1478 69.8142 67.1754 69.7863C67.4368 69.4513 67.7138 69.142 67.9916 68.8234C68.0124 68.8063 68.0313 68.7871 68.0482 68.7661C68.0568 68.7582 68.0646 68.7418 68.0732 68.7339C68.5973 68.0485 69.2768 67.4976 70.0557 67.1266C70.0557 67.1287 70.0565 67.1307 70.058 67.1322C70.0595 67.1336 70.0615 67.1345 70.0635 67.1345L70.5282 66.9147C70.5509 66.8783 70.5642 66.8369 70.5668 66.7942C70.5694 66.7514 70.5613 66.7087 70.5432 66.6698Z" fill="#191919"/>
<path d="M83.7595 80.5384C83.4123 79.2161 82.5739 76.6394 82.1443 75.35C82.002 74.7826 81.7912 74.2347 81.5165 73.7184C81.4449 73.6038 81.2387 73.6468 81.2551 73.7899C81.2938 74.3033 81.4241 74.6398 82.2668 77.167C82.6498 78.3254 83.0335 79.4838 83.4839 80.6179C83.4944 80.6544 83.519 80.6853 83.5523 80.7037C83.5856 80.7221 83.6249 80.7265 83.6614 80.716C83.698 80.7054 83.7288 80.6808 83.7472 80.6475C83.7656 80.6142 83.77 80.575 83.7595 80.5384ZM89.1763 80.1854C89.6428 78.5466 89.9624 76.8694 90.1314 75.1739C90.2373 74.6255 90.2537 74.0636 90.1801 73.51C90.1557 73.379 89.976 73.4041 89.9438 73.51C89.6968 74.2052 89.8722 75.4051 88.8914 80.1096C88.8856 80.1458 88.8934 80.1829 88.9134 80.2137C88.9334 80.2445 88.9641 80.2668 88.9996 80.2762C89.035 80.2857 89.0728 80.2816 89.1054 80.2648C89.1381 80.2481 89.1633 80.2198 89.1763 80.1854ZM94.4879 81.681C96.1267 80.1673 97.6535 78.5366 99.0563 76.8019C99.1702 76.6473 98.9253 76.4597 98.795 76.5979C98.0368 77.4062 97.3266 78.2546 96.5842 79.07C95.8417 79.8855 95.075 80.6852 94.3161 81.5042C94.2978 81.5279 94.2887 81.5575 94.2904 81.5873C94.2922 81.6172 94.3046 81.6455 94.3255 81.667C94.3463 81.6885 94.3742 81.7017 94.404 81.7043C94.4339 81.7069 94.4636 81.6986 94.4879 81.681ZM50.8741 88.509C50.1489 87.0771 48.9504 84.9658 48.4263 84.0136C48.1908 83.5192 47.9028 83.0517 47.5672 82.6189C47.5462 82.599 47.5193 82.5865 47.4905 82.5832C47.4617 82.5799 47.4327 82.5861 47.4078 82.6009C47.3828 82.6156 47.3634 82.638 47.3524 82.6648C47.3413 82.6916 47.3394 82.7212 47.3467 82.7492C47.5369 83.2617 47.7832 83.7515 48.0812 84.2098C48.3583 84.6995 50.0308 87.6771 50.6185 88.6558C50.638 88.6896 50.6701 88.7144 50.7079 88.7246C50.7456 88.7348 50.7858 88.7296 50.8197 88.7102C50.8536 88.6907 50.8784 88.6586 50.8886 88.6208C50.8988 88.5831 50.8936 88.5429 50.8741 88.509ZM54.219 88.2563C54.4889 86.6747 54.635 84.8477 54.7739 83.2311C54.8563 82.686 54.87 82.1328 54.8147 81.5844C54.7896 81.4412 54.5863 81.462 54.5455 81.5844C54.429 82.1011 54.3742 82.6298 54.3822 83.1595C54.3414 83.7222 54.0801 87.1079 54.0064 88.2341C53.982 88.3543 54.1968 88.3873 54.219 88.2563ZM57.6126 89.749C58.2505 89.0395 58.8361 88.2892 59.4239 87.5382C60.045 86.8633 60.6047 86.1345 61.0964 85.3603C61.1103 85.3308 61.1138 85.2975 61.1063 85.2658C61.0988 85.2341 61.0807 85.2059 61.055 85.1859C61.0293 85.1659 60.9976 85.1552 60.965 85.1557C60.9324 85.1562 60.901 85.1677 60.8758 85.1884C60.5363 85.5216 60.2276 85.8849 59.9537 86.2738C59.1318 87.3248 58.2047 88.4646 57.4007 89.5858C57.319 89.7075 57.5159 89.8564 57.6126 89.749Z" fill="#EF233C"/>
</svg>
