<svg width="31" height="31" viewBox="0 0 31 31" fill="none" xmlns="http://www.w3.org/2000/svg">
<path d="M28.5468 15.2288C28.5468 22.5844 22.5853 28.5541 15.225 28.5541C7.86462 28.5541 1.90308 22.5844 1.90308 15.2288C1.90308 7.86662 7.86462 1.90356 15.225 1.90356C22.5853 1.90356 28.5468 7.86662 28.5468 15.2288Z" fill="#283544"/>
<path d="M21.4693 11.857C21.3966 11.8994 19.666 12.7946 19.666 14.7795C19.7476 17.0431 21.8499 17.8369 21.886 17.8369C21.8499 17.8793 21.5686 18.9183 20.7352 20.0074C20.0739 20.9456 19.3398 21.8915 18.2251 21.8915C17.1648 21.8915 16.7842 21.2662 15.5607 21.2662C14.2468 21.2662 13.8751 21.8915 12.8691 21.8915C11.7545 21.8915 10.966 20.8949 10.2686 19.9656C9.36254 18.7492 8.59242 16.8403 8.56523 15.0075C8.54691 14.0363 8.74668 13.0816 9.25379 12.2707C9.96953 11.1386 11.2473 10.3701 12.6428 10.3448C13.712 10.3112 14.6635 11.029 15.316 11.029C15.9413 11.029 17.1104 10.3448 18.4331 10.3448C19.0041 10.3453 20.5266 10.5056 21.4693 11.857ZM15.2256 10.1509C15.0353 9.26391 15.5607 8.37698 16.0501 7.81121C16.6754 7.127 17.663 6.6626 18.5147 6.6626C18.5691 7.54954 18.2245 8.4194 17.6086 9.05292C17.056 9.73713 16.1045 10.2522 15.2256 10.1509Z" fill="white"/>
</svg>
