<svg width="16" height="17" viewBox="0 0 16 17" fill="none" xmlns="http://www.w3.org/2000/svg">
<path d="M11.3333 1.6897H4.66658C2.82564 1.6897 1.33325 3.15863 1.33325 4.97066V11.5326C1.33325 13.3446 2.82564 14.8135 4.66658 14.8135H11.3333C13.1742 14.8135 14.6666 13.3446 14.6666 11.5326V4.97066C14.6666 3.15863 13.1742 1.6897 11.3333 1.6897Z" stroke="#EF233C" stroke-linecap="round" stroke-linejoin="round"/>
<path d="M10.6666 7.83815C10.7488 8.38426 10.6541 8.942 10.3957 9.43204C10.1374 9.92209 9.72865 10.3195 9.22764 10.5677C8.72662 10.8159 8.15885 10.9023 7.60508 10.8146C7.0513 10.7269 6.53973 10.4695 6.14311 10.0791C5.7465 9.68876 5.48504 9.18522 5.39593 8.64015C5.30682 8.09508 5.3946 7.53623 5.64677 7.04309C5.89894 6.54995 6.30268 6.14763 6.80054 5.89335C7.29841 5.63908 7.86505 5.5458 8.41988 5.62678C8.98583 5.70939 9.50978 5.96896 9.91435 6.36717C10.3189 6.76537 10.5826 7.28109 10.6666 7.83815Z" stroke="#EF233C" stroke-linecap="round" stroke-linejoin="round"/>
<path d="M11.6667 4.64233H11.6767" stroke="#EF233C" stroke-linecap="round" stroke-linejoin="round"/>
</svg>
