<svg width="24" height="24" viewBox="0 0 24 24" fill="none" xmlns="http://www.w3.org/2000/svg">
<path id="Vector" d="M22.1502 23.6936C22.3561 23.8924 22.6318 24.0024 22.918 24C23.2042 23.9975 23.4779 23.8827 23.6803 23.6803C23.8827 23.4779 23.9975 23.2042 24 22.918C24.0024 22.6318 23.8924 22.3561 23.6936 22.1502L22.1502 23.6936ZM17.4643 9.82367C17.4643 11.8501 16.6593 13.7935 15.2264 15.2264C13.7935 16.6593 11.8501 17.4643 9.82367 17.4643V19.6473C12.4291 19.6473 14.9278 18.6123 16.7701 16.7701C18.6123 14.9278 19.6473 12.4291 19.6473 9.82367H17.4643ZM9.82367 17.4643C7.79725 17.4643 5.85382 16.6593 4.42093 15.2264C2.98803 13.7935 2.18304 11.8501 2.18304 9.82367H0C0 12.4291 1.03499 14.9278 2.87729 16.7701C4.71958 18.6123 7.21827 19.6473 9.82367 19.6473V17.4643ZM2.18304 9.82367C2.18304 7.79725 2.98803 5.85382 4.42093 4.42093C5.85382 2.98803 7.79725 2.18304 9.82367 2.18304V0C7.21827 0 4.71958 1.03499 2.87729 2.87729C1.03499 4.71958 0 7.21827 0 9.82367H2.18304ZM9.82367 2.18304C11.8501 2.18304 13.7935 2.98803 15.2264 4.42093C16.6593 5.85382 17.4643 7.79725 17.4643 9.82367H19.6473C19.6473 7.21827 18.6123 4.71958 16.7701 2.87729C14.9278 1.03499 12.4291 0 9.82367 0V2.18304ZM15.0553 16.5987L22.1502 23.6936L23.6936 22.1502L16.5987 15.0553L15.0553 16.5987Z" fill="#8B4513"/>
</svg>
